<?xml version="1.0" encoding="UTF-8" standalone="no"?>
<!-- Created with Inkscape (http://www.inkscape.org/) -->

<svg
   xmlns:dc="http://purl.org/dc/elements/1.1/"
   xmlns:cc="http://creativecommons.org/ns#"
   xmlns:rdf="http://www.w3.org/1999/02/22-rdf-syntax-ns#"
   xmlns:svg="http://www.w3.org/2000/svg"
   xmlns="http://www.w3.org/2000/svg"
   xmlns:sodipodi="http://sodipodi.sourceforge.net/DTD/sodipodi-0.dtd"
   xmlns:inkscape="http://www.inkscape.org/namespaces/inkscape"
   version="1.1"
   id="svg2"
   xml:space="preserve"
   width="600"
   height="600"
   viewBox="0 0 600 600"
   sodipodi:docname="SVG Squidward Tentacles.svg"
   inkscape:version="0.92.2 5c3e80d, 2017-08-06"><metadata
     id="metadata8"><rdf:RDF><cc:Work
         rdf:about=""><dc:format>image/svg+xml</dc:format><dc:type
           rdf:resource="http://purl.org/dc/dcmitype/StillImage" /><dc:title></dc:title></cc:Work></rdf:RDF></metadata><defs
     id="defs6" /><sodipodi:namedview
     pagecolor="#ffffff"
     bordercolor="#666666"
     borderopacity="1"
     objecttolerance="10"
     gridtolerance="10"
     guidetolerance="10"
     inkscape:pageopacity="0"
     inkscape:pageshadow="2"
     inkscape:window-width="1438"
     inkscape:window-height="770"
     id="namedview4"
     showgrid="false"
     inkscape:zoom="0.8"
     inkscape:cx="296"
     inkscape:cy="288"
     inkscape:window-x="0"
     inkscape:window-y="0"
     inkscape:window-maximized="0"
     inkscape:current-layer="g10" /><g
     id="g10"
     inkscape:groupmode="layer"
     inkscape:label="SB_MAINCHAR3_SQUIDWARD"
     transform="matrix(1.3333333,0,0,-1.3333333,0,600)"><g
       id="MAIN_CHARACTER_3"
       transform="matrix(0.57834,0,0,0.57834,114.10893,-10.119874)"
       sodipodi:insensitive="true"
       inkscape:label="SB_MAINCHAR3_SQUIDWARD"><title
         id="title1323">Squidward</title><g
         transform="matrix(2.0829773,0,0,2.0829773,8.8371277,-440.37689)"
         id="g12"><g
           transform="translate(159.671,412.882)"
           id="g14"><path
             inkscape:connector-curvature="0"
             id="path16"
             style="fill:#211e1f;fill-opacity:1;fill-rule:nonzero;stroke:none"
             d="m 0,0 c -6.335,4.129 -12.398,8.263 -18.788,12.395 -0.443,1.27 0.272,2.152 0.109,3.308 -0.606,1.324 -2.151,0.992 -3.14,1.764 -5.898,4.353 -12.345,7.33 -18.022,12.288 -0.275,0.661 -0.55,1.432 -0.881,2.094 -0.607,1.213 -1.614,3.872 -1.756,3.855 -2.72,2.891 -6.677,3.934 -10.42,4.732 -1.873,3.914 -2.536,8.322 -3.858,12.453 -1.545,4.794 -1.984,9.975 -3.141,14.933 0.164,0.168 0.109,0.443 0.385,0.497 1.267,0.423 5.429,1.463 6.582,1.629 0.228,-1.111 1.522,-4.893 1.974,-6.092 2.947,-7.8 10.575,-14.184 19.115,-10.176 6.67,3.132 7.406,8.98 7.072,15.568 -0.357,7.01 -2.186,15.011 -6.103,20.947 0.33,0.988 0.678,1.546 0.842,2.59 0.605,3.859 0,7.662 -3.03,10.196 -3.031,2.59 -7.219,0.825 -10.47,0.274 -0.057,0.058 -0.167,0.167 -0.276,0.276 1.487,1.379 0.824,3.913 0.937,5.677 0.164,2.038 -1.435,4.297 0.55,5.841 0.188,1.12 0.312,2.515 -0.55,3.405 -0.347,0.359 -3.117,1.119 -3.092,0.875 -0.242,2.434 -2.107,5.302 -3.588,7.342 -1.739,2.397 -4.719,3.946 -5.752,6.779 -0.851,2.336 1.829,6.721 2.403,9.372 1.762,8.155 -1.708,15.045 -7.661,19.948 -5.031,4.153 -15.911,9.173 -26.352,8.911 -10.966,-0.272 -20.531,-3.68 -28.685,-8.846 -11.278,-7.15 -23.399,-19.389 -29.098,-32.148 -4.815,-10.773 -6.833,-29.477 8.836,-38.098 6.762,-3.722 15.515,-5.25 23.058,-3.991 3.639,0.607 7.44,1.268 11.078,2.206 1.158,-1.49 2.59,-2.866 3.195,-4.631 -0.77,-0.551 -1.762,-0.551 -2.808,-0.494 -2.502,0.134 -7.984,-3.391 -9.263,-5.449 -1.724,-2.776 -1.233,-6.946 0.292,-9.709 1.582,-2.864 5.337,-3.605 8.263,-4.569 3.385,-1.115 7.276,-1.534 10.775,-2.09 2.365,-0.377 4.934,-0.155 7.31,0.005 0.975,0.065 6.293,1.219 6.866,0.651 0.167,-0.167 0.332,-0.331 0.497,-0.552 1.488,-3.362 3.196,-6.558 5.015,-9.754 2.755,-4.739 4.408,-9.81 7.054,-14.546 -2.866,-3.307 -3.638,-7.716 -4.905,-11.793 -6.17,-5.236 -12.453,-10.142 -19.341,-13.778 -2.589,-1.324 -1.434,-4.353 -1.543,-6.336 -4.495,-4.152 -9.187,-8.081 -13.647,-12.271 -3.857,-3.625 -9.224,-8.051 -11.478,-12.956 -1.108,-2.409 2.304,-7.075 3.78,-8.852 2.303,-2.778 5.011,-5.184 7.876,-7.366 5.615,-4.275 11.856,-7.683 17.271,-12.23 0.265,-0.223 -8.051,-2.129 -8.992,-2.318 -0.913,-0.184 -6.568,-0.949 -6.217,-2.586 0.494,-2.261 0.881,-4.573 2.148,-6.498 3.286,-5 8.201,-9.348 13.787,-11.573 2.801,-1.113 5.772,-1.623 8.774,-1.245 3.355,0.421 6.13,1.599 9.401,2.402 -0.454,-0.114 2.927,-6.823 3.273,-7.344 2.469,-3.727 5.609,-5.202 6.261,-9.959 2.754,-20.117 2.426,-41.608 -0.497,-61.664 -3.968,-4.575 -9.202,-7.053 -15.65,-6.061 -0.11,0.11 -0.222,0.276 -0.386,0.385 -0.053,4.684 -0.441,9.257 -2.481,13.116 -1.321,2.313 -4.077,4.023 -6.612,3.142 -6.391,-2.151 -9.422,-9.203 -10.359,-15.322 -5.234,-7.438 -7.99,-16.09 -7.272,-25.788 0.219,-0.386 0.606,-0.718 0.936,-1.048 8.045,-4.739 18.238,-6.668 28.047,-4.52 8.707,1.931 17.249,3.914 25.24,7.275 2.755,-1.213 5.348,-2.693 7.934,-4.078 16.278,-8.726 36.88,-2.619 37.485,-2.287 3.253,4.521 2.907,10.112 2.577,15.733 2.478,6.888 2.59,15.593 0.277,22.483 -0.884,2.646 -2.316,5.289 -5.017,6.89 -2.204,1.32 -5.51,2.145 -7.935,0.826 -5.458,-3.031 -6.942,-8.926 -8.046,-14.328 -4.186,-2.479 -9.531,-1.213 -14.437,-1.544 -0.109,0.167 -0.439,0.057 -0.385,0.386 -2.206,13.5 -2.754,26.783 -1.213,40.722 0.869,7.854 2.591,15.563 4.425,23.237 0.809,3.384 1.17,7.654 2.736,10.74 1.525,3.004 3.424,5.106 3.648,8.744 0.096,1.58 1.033,9.315 0.032,10.237 2.769,-2.55 6.2,-3.948 10.209,-3.63 5.597,0.446 10.025,4.135 13.068,8.629 1.58,2.33 2.677,4.84 3.835,7.389 1.26,2.775 1.285,4.909 1.228,7.967 -0.073,4.027 -2.194,8.019 -6.777,5.662 -0.407,-0.209 -3.537,-1.889 -3.531,-1.873 3.639,8.981 9.369,17.082 11.354,26.726 C 5.016,-3.748 2.26,-1.543 0,0 Z m -70.092,-29.106 c -3.085,1.209 -6.171,2.422 -9.257,3.69 -5.564,2.258 -10.857,5.072 -16.037,8.213 1.323,6.281 8.101,9.973 12.068,15.209 0.938,0 1.324,-1.377 2.26,-1.6 1.598,-1.49 4.464,-1.158 6.336,-0.824 2.977,2.809 4.135,6.611 7.276,9.146 -0.277,-11.351 -1.985,-22.32 -2.646,-33.834 z m 44.139,0.284 c -0.165,0 -0.387,-0.332 -0.496,0 -0.305,0.84 -0.33,1.908 -0.749,2.693 -2.271,10.631 -4.686,21.201 -7.212,31.723 2.245,-0.836 4.155,-2.385 6.254,-3.612 1.322,-0.33 2.532,0.496 3.802,0.77 2.535,-1.816 5.069,-3.859 7.437,-5.95 1.655,-1.49 2.667,-2.679 4.354,-5.016 -4.738,-6.776 -8.099,-14.104 -13.39,-20.608" /></g></g><g
         transform="matrix(2.0829773,0,0,2.0829773,8.8371277,-440.37689)"
         id="g18"><g
           transform="translate(154.844,378.37)"
           id="g20"><path
             inkscape:connector-curvature="0"
             id="path22"
             style="fill:#8da5d5;fill-opacity:1;fill-rule:nonzero;stroke:none"
             d="m 0,0 c -0.379,-0.217 -2.537,-1.445 -3.108,-1.584 -1.267,-2.701 -3.085,-5.236 -2.534,-8.488 0.012,-0.061 1.202,0.351 1.33,0.379 0.744,0.152 1.677,0.043 2.253,-0.485 1.065,-0.982 0.524,-2.332 -0.024,-3.373 -0.095,-0.183 -1.286,-2.409 -1.384,-2.345 1.638,-0.282 3.467,0.642 4.823,1.859 3.46,3.106 6.564,11 3.39,15.191 C 4.464,1.309 4.154,1.422 3.78,1.446 2.294,1.446 1.21,0.697 0,0" /></g></g><g
         transform="matrix(2.0829773,0,0,2.0829773,8.8371277,-440.37689)"
         id="g24"><g
           transform="translate(155.113,377.754)"
           id="g26"><path
             inkscape:connector-curvature="0"
             id="path28"
             style="fill:#211e1f;fill-opacity:1;fill-rule:nonzero;stroke:none"
             d="m 0,0 c 0.713,0.224 1.843,0.426 2.392,-0.067 0.997,-0.897 0.418,-2.791 0.117,-3.87 -0.412,-1.461 -1.512,-2.941 -3.123,-3.232 -1.307,-0.236 -3.077,0.383 -3.249,1.879 -0.14,1.25 0.606,2.432 1.337,3.377 0.575,0.748 1.401,1.512 2.311,1.84 C -0.15,-0.048 -0.079,-0.026 0,0" /></g></g><g
         transform="matrix(2.0829773,0,0,2.0829773,8.8371277,-440.37689)"
         id="g30"><g
           transform="translate(137.298,428.585)"
           id="g32"><path
             inkscape:connector-curvature="0"
             id="path34"
             style="fill:#e19f13;fill-opacity:1;fill-rule:nonzero;stroke:none"
             d="m 0,0 c 0.498,-0.387 1.435,-0.275 1.711,-0.881 0.107,-4.299 -1.654,-8.213 -5.291,-10.58 -3.858,0.273 -6.834,2.863 -9.92,5.125 -0.604,4.188 -1.862,8.095 -2.226,10.729 -0.365,2.634 -1.354,4.863 -1.08,6.849 C -11.571,6.557 -5.344,4.354 0,0" /></g></g><g
         transform="matrix(2.0829773,0,0,2.0829773,8.8371277,-440.37689)"
         id="g36"><g
           transform="translate(141.818,422.523)"
           id="g38"><path
             inkscape:connector-curvature="0"
             id="path40"
             style="fill:#b9d7cd;fill-opacity:1;fill-rule:nonzero;stroke:none"
             d="m 0,0 c 5.729,-4.243 12.013,-7.438 17.579,-11.902 5.566,-4.464 0.386,-10.526 -1.213,-15.101 -3.139,-9.148 -9.257,-17.08 -11.351,-26.668 -0.606,-2.867 1.599,-5.071 3.692,-6.118 1.819,-0.879 4.076,0.166 5.675,1.599 1.683,1.51 2.878,3.597 3.687,5.69 0.846,2.195 1.353,4.7 0.828,7.035 -0.147,0.658 -0.382,1.3 -0.724,1.885 -0.183,0.312 -0.335,0.568 -0.681,0.709 -0.43,0.177 -0.911,0.109 -1.361,0.146 0.498,0.233 1.24,0.34 1.773,0.178 0.543,-0.164 1.002,-0.711 1.283,-1.184 0.619,-1.047 0.627,-2.326 0.571,-3.504 -0.022,-0.472 -0.072,-0.949 -0.085,-1.422 -0.165,-5.952 -2.921,-11.187 -6.833,-15.484 -3.086,-3.363 -7.275,-5.015 -11.904,-5.015 -3.526,0 -5.95,3.138 -8.485,5.399 -0.222,0.605 -0.66,1.489 -0.109,2.151 0.88,1.103 2.258,1.318 3.031,2.477 -1.378,5.458 -2.371,10.965 -3.031,16.697 2.644,5.512 6.059,10.8 9.642,15.982 1.818,2.646 3.581,5.123 5.125,7.827 0.772,-0.387 1.708,-1.655 2.533,-0.665 0.939,2.041 -1.418,2.743 -3.306,4.081 -3.634,3.082 -7.384,6.334 -11.129,9.531 0,0.11 0,0.277 0,0.385 1.378,1.711 2.369,3.638 3.306,5.568 C -0.881,0.441 -0.551,-0.055 0,0" /></g></g><g
         transform="matrix(2.0829773,0,0,2.0829773,8.8371277,-440.37689)"
         id="g42"><g
           transform="translate(81.645,233.671)"
           id="g44"><path
             inkscape:connector-curvature="0"
             id="path46"
             style="fill:#8da5d5;fill-opacity:1;fill-rule:nonzero;stroke:none"
             d="m 0,0 c -2.48,3.305 -2.975,7.492 -3.693,11.514 -1.098,5.763 -0.505,12.238 -3.061,17.351 -2.346,1.641 -7.456,-1.189 -8.73,-3.076 -4.356,-6.561 -6.616,-14.053 -6.227,-22.648 0.164,-0.332 0.11,-1.105 0.825,-0.883 0.11,2.092 0.11,4.243 1.818,5.785 0.882,0.828 1.763,0.496 2.811,0.385 3.414,-1.875 1.764,-6.006 1.434,-8.982 1.156,-0.827 2.809,-1.046 4.35,-1.321 -0.109,0.22 0.22,0.22 0.168,0.385 -0.717,1.599 -1.049,3.802 -0.277,5.456 0.384,0.768 1.213,2.26 2.372,1.598 2.975,-1.709 4.406,-5.125 3.692,-8.377 1.729,-0.126 12.461,1.198 15.105,2.018 C 7.137,-1.406 3.613,-1.353 0,0" /></g></g><g
         transform="matrix(2.0829773,0,0,2.0829773,8.8371277,-440.37689)"
         id="g48"><g
           transform="translate(156.588,253.784)"
           id="g50"><path
             inkscape:connector-curvature="0"
             id="path52"
             style="fill:#8da5d5;fill-opacity:1;fill-rule:nonzero;stroke:none"
             d="m 0,0 c -1.048,2.258 -2.48,4.626 -4.74,6.061 -1.257,0.784 -5.355,0.225 -6.984,-0.541 0.127,0.049 0.242,0.114 0.372,0.156 -4.078,-6.506 -2.7,-15.211 -5.402,-22.209 -0.99,-2.535 -3.305,-5.18 -5.949,-6.119 -0.041,0.01 -0.081,0.016 -0.119,0.025 1.741,-0.589 5.14,-1.036 5.906,-0.795 1.816,2.645 1.597,6.614 4.793,8.598 0.99,0.275 2.094,0.053 2.865,-0.83 1.819,-2.037 1.102,-5.013 0,-7.108 1.047,0.278 2.315,-0.054 3.086,0.774 -0.378,2.326 0.628,8.825 4.354,7.822 2.982,-0.803 1.676,-4.808 1.087,-6.734 0.829,0.207 1.7,0.984 1.943,1.832 C 2.976,-13.119 2.644,-5.457 0,0" /></g></g><g
         transform="matrix(2.0829773,0,0,2.0829773,8.8371277,-440.37689)"
         id="g54"><g
           transform="translate(71.447,350.051)"
           id="g56"><path
             inkscape:connector-curvature="0"
             id="path58"
             style="fill:#8da5d5;fill-opacity:1;fill-rule:nonzero;stroke:none"
             d="m 0,0 c 2.924,-1.599 7.332,-1.876 10.031,0.495 0.274,0.239 0.465,0.516 0.628,0.807 C 10.515,1.046 8.258,1.566 7.984,1.609 6.943,1.772 5.39,2.229 4.743,3.14 2.824,5.829 5.508,8.657 8.048,9.475 c 0.056,0.276 0,0.498 -0.221,0.665 -1.104,-0.278 -2.258,-0.11 -3.196,0.275 -1.046,0.439 -1.816,1.543 -1.873,2.644 0,0.828 0.66,1.543 0.44,2.26 -3.36,-1.709 -9.589,-3.324 -13.588,-3.39 0.208,-0.379 -0.279,-0.868 -0.188,-1.238 C -9.585,5.62 -4.129,2.206 0,0" /></g></g><g
         transform="matrix(2.0829773,0,0,2.0829773,8.8371277,-440.37689)"
         id="g60"><g
           transform="translate(83.106,581.636)"
           id="g62"><path
             inkscape:connector-curvature="0"
             id="path64"
             style="fill:#b9d7cd;fill-opacity:1;fill-rule:nonzero;stroke:none"
             d="m 0,0 c 9.422,-2.314 20.246,-8.215 22.449,-18.741 1.047,-4.959 -1.484,-10.772 -3.411,-15.015 -6.669,0.771 -12.619,-0.662 -18.24,-3.032 -7.879,-3.306 -15.706,-8.102 -21.436,-15.211 -0.388,-0.439 0.22,-0.66 0.385,-0.936 0.716,0.111 0.882,0.882 1.322,1.325 0.884,0.33 1.49,1.542 2.37,1.872 0.384,-0.993 -0.055,-2.479 0,-3.857 0.661,-11.243 3.363,-23.418 14.163,-28.544 4.516,-2.204 11.406,-1.598 15.482,1.818 2.261,1.929 2.536,4.518 3.804,6.776 0.662,-0.217 0.826,-1.101 1.211,-1.596 1.323,-3.858 2.26,-7.824 3.196,-11.791 -4.463,-2.813 -9.698,-3.803 -14.822,-4.907 -8.706,-1.763 -18.516,-2.589 -27.386,-0.661 0.163,0.993 1.542,1.267 2.259,2.149 -0.277,0.386 -0.661,0.937 -1.214,0.937 -2.148,0 -3.249,-2.479 -4.462,-3.856 -0.278,-0.772 -0.552,-1.928 0,-2.647 0.496,-0.715 0.991,0.553 1.158,0.94 0,1.155 1.871,0.66 2.643,0.495 13.833,-2.15 27.886,0.275 40.228,4.242 0.715,0.22 1.322,1.103 2.095,0.826 0.33,-2.204 0.937,-4.242 1.044,-6.503 -2.532,-1.486 -5.674,-2.369 -8.595,-3.306 -12.565,-4.022 -27.993,-4.905 -40.832,-0.936 -1.984,0.607 -4.629,1.543 -5.016,3.859 -1.21,1.486 -1.817,3.526 -0.661,5.124 1.766,2.645 4.465,5.069 7.496,5.841 4.352,1.047 10.137,1.047 14.822,0.11 0.164,0.275 0.496,0.111 0.66,0.439 0.057,0.387 -0.44,0.662 -0.772,0.774 -2.863,0.605 -6.003,0.937 -8.871,1.212 -2.202,2.809 -2.521,5.607 -5.275,8.034 -0.474,0.416 -6.792,-1.625 -7.643,-1.869 -12.358,-3.538 -27.483,2.093 -33.158,11.628 -9.681,16.717 6.022,40.195 15.813,48.999 C -31.633,-0.219 -16.917,4.111 0,0" /></g></g><g
         transform="matrix(2.0829773,0,0,2.0829773,8.8371277,-440.37689)"
         id="g66"><g
           transform="translate(64.066,577.745)"
           id="g68"><path
             inkscape:connector-curvature="0"
             id="path70"
             style="fill:#016a57;fill-opacity:1;fill-rule:nonzero;stroke:none"
             d="m 0,0 c 0,-1.047 -1.213,-1.376 -1.873,-1.983 -0.773,-0.054 -1.544,0.331 -1.71,1.103 0.22,0.827 1.158,1.155 1.819,1.542 C -1.047,0.773 -0.442,0.662 0,0" /></g></g><g
         transform="matrix(2.0829773,0,0,2.0829773,8.8371277,-440.37689)"
         id="g72"><g
           transform="translate(71.999,575.762)"
           id="g74"><path
             inkscape:connector-curvature="0"
             id="path76"
             style="fill:#016a57;fill-opacity:1;fill-rule:nonzero;stroke:none"
             d="m 0,0 c -0.108,-1.047 -1.376,-1.653 -2.257,-1.982 -0.608,-0.223 -1.323,0.108 -1.876,0.44 -0.438,0.275 -0.054,0.66 0,1.046 C -2.974,0.278 -0.936,1.432 0,0" /></g></g><g
         transform="matrix(2.0829773,0,0,2.0829773,8.8371277,-440.37689)"
         id="g78"><g
           transform="translate(89.966,572.457)"
           id="g80"><path
             inkscape:connector-curvature="0"
             id="path82"
             style="fill:#000000;fill-opacity:1;fill-rule:nonzero;stroke:none"
             d="m 0,0 c 0.108,-0.221 0.55,-0.331 0.384,-0.66 -1.046,-0.277 -2.148,-0.168 -3.416,-0.223 -4.958,-0.332 -9.918,-1.212 -14.439,-2.81 -2.864,-0.992 -5.398,-3.029 -7.933,-4.627 -0.827,1.045 1.046,2.146 1.874,2.808 C -17.139,-0.387 -8.321,1.323 0,0" /></g></g><g
         transform="matrix(2.0829773,0,0,2.0829773,8.8371277,-440.37689)"
         id="g84"><g
           transform="translate(63.404,569.811)"
           id="g86"><path
             inkscape:connector-curvature="0"
             id="path88"
             style="fill:#016a57;fill-opacity:1;fill-rule:nonzero;stroke:none"
             d="m 0,0 c -0.332,-1.101 -1.654,-1.93 -2.81,-2.095 -0.44,-0.053 -0.772,0.443 -0.936,0.771 0.44,0.939 1.598,1.818 2.535,2.262 C -0.661,0.992 -0.274,0.44 0,0" /></g></g><g
         transform="matrix(2.0829773,0,0,2.0829773,8.8371277,-440.37689)"
         id="g90"><g
           transform="translate(53.705,566.671)"
           id="g92"><path
             inkscape:connector-curvature="0"
             id="path94"
             style="fill:#016a57;fill-opacity:1;fill-rule:nonzero;stroke:none"
             d="M 0,0 C -0.386,-0.388 -0.936,0.109 -1.045,0.495 -1.267,1.431 -0.055,2.039 0.55,2.479 1.213,2.975 1.6,2.039 1.876,1.707 1.379,1.101 0.774,0.274 0,0" /></g></g><g
         transform="matrix(2.0829773,0,0,2.0829773,8.8371277,-440.37689)"
         id="g96"><g
           transform="translate(43.015,566.394)"
           id="g98"><path
             inkscape:connector-curvature="0"
             id="path100"
             style="fill:#016a57;fill-opacity:1;fill-rule:nonzero;stroke:none"
             d="M 0,0 C -1.158,-0.496 -1.377,-2.919 -2.92,-1.982 -3.746,-1.488 -2.975,-0.659 -3.03,0 -2.314,0.661 -0.495,1.487 0,0" /></g></g><g
         transform="matrix(2.0829773,0,0,2.0829773,8.8371277,-440.37689)"
         id="g102"><g
           transform="translate(98.176,565.622)"
           id="g104"><path
             inkscape:connector-curvature="0"
             id="path106"
             style="fill:#000000;fill-opacity:1;fill-rule:nonzero;stroke:none"
             d="m 0,0 c -0.055,-0.276 -0.33,-0.55 -0.551,-0.55 -8.484,0.056 -16.367,-2.038 -23.916,-4.628 -3.361,-1.156 -5.897,-4.135 -8.871,-6.228 -0.222,0 -0.332,0.276 -0.553,0.386 -0.219,0.442 0.387,0.604 0.442,0.936 5.674,7.441 14.272,8.485 22.318,10.304 3.361,0.772 7.33,0.885 10.745,0.168 C -0.275,0.22 -0.166,0.113 0,0" /></g></g><g
         transform="matrix(2.0829773,0,0,2.0829773,8.8371277,-440.37689)"
         id="g108"><g
           transform="translate(98.451,555.152)"
           id="g110"><path
             inkscape:connector-curvature="0"
             id="path112"
             style="fill:#000000;fill-opacity:1;fill-rule:nonzero;stroke:none"
             d="m 0,0 c -0.771,-0.99 -1.596,0.054 -2.535,0 -8.597,-0.33 -16.256,-2.701 -23.144,-6.997 -0.496,0 -0.662,0.385 -0.386,0.769 6.171,4.961 13.392,7.717 21.436,7.937 C -2.976,1.765 -0.661,1.93 0,0" /></g></g><g
         transform="matrix(2.0829773,0,0,2.0829773,8.8371277,-440.37689)"
         id="g114"><g
           transform="translate(31.498,553.942)"
           id="g116"><path
             inkscape:connector-curvature="0"
             id="path118"
             style="fill:#016a57;fill-opacity:1;fill-rule:nonzero;stroke:none"
             d="m 0,0 c -0.66,-0.828 -1.653,-2.591 -2.92,-2.205 -0.551,0.495 -0.551,1.157 0,1.707 C -2.147,0.274 -0.551,1.433 0,0" /></g></g><g
         transform="matrix(2.0829773,0,0,2.0829773,8.8371277,-440.37689)"
         id="g120"><g
           transform="translate(35.191,550.413)"
           id="g122"><path
             inkscape:connector-curvature="0"
             id="path124"
             style="fill:#016a57;fill-opacity:1;fill-rule:nonzero;stroke:none"
             d="m 0,0 c -0.222,-0.824 -0.827,-1.489 -1.545,-1.762 -0.494,0.109 -1.044,0.273 -1.212,0.826 C -2.478,0.056 -0.717,1.819 0,0" /></g></g><g
         transform="matrix(2.0829773,0,0,2.0829773,8.8371277,-440.37689)"
         id="g126"><g
           transform="translate(102.528,545.62)"
           id="g128"><path
             inkscape:connector-curvature="0"
             id="path130"
             style="fill:#91bbb2;fill-opacity:1;fill-rule:nonzero;stroke:none"
             d="m 0,0 c 3.969,-4.463 7.884,-8.928 9.81,-14.272 0.937,-0.937 2.59,-0.275 3.307,-1.598 0.497,-1.049 -0.277,-1.984 -1.213,-2.095 -5.18,-0.607 -9.864,-2.093 -14.549,-3.691 0.223,1.103 -2.258,2.699 0.111,3.14 2.371,0.496 4.574,1.322 6.889,1.984 0.165,0.331 1.102,0.662 0.549,1.047 -1.156,0.77 -2.808,0.055 -4.131,-0.222 -2.161,-0.453 -4.371,-2.083 -6.465,-2.307 -1.659,6.165 -5.077,11.717 -9.131,16.582 4.079,1.376 8.653,1.597 13.226,1.816 C -1.101,0.165 -0.384,0.442 0,0" /></g></g><g
         transform="matrix(2.0829773,0,0,2.0829773,8.8371277,-440.37689)"
         id="g132"><g
           transform="translate(126.99,511.638)"
           id="g134"><path
             inkscape:connector-curvature="0"
             id="path136"
             style="fill:#b9d7cd;fill-opacity:1;fill-rule:nonzero;stroke:none"
             d="m 0,0 c 0.442,-2.04 0.116,-3.547 -0.103,-5.53 -0.113,0 -0.387,-0.164 -0.276,0.111 -2.648,3.638 -6.338,6.392 -10.196,7.934 2.316,1.16 5.345,0.772 7.934,0.112 C -1.757,2.407 -0.222,0.992 0,0" /></g></g><g
         transform="matrix(2.0829773,0,0,2.0829773,8.8371277,-440.37689)"
         id="g138"><g
           transform="translate(131.128,495.547)"
           id="g140"><path
             inkscape:connector-curvature="0"
             id="path142"
             style="fill:#b9d7cd;fill-opacity:1;fill-rule:nonzero;stroke:none"
             d="m 0,0 c 1.819,-5.998 4.031,-20.899 -2.147,-25.183 -6.771,-4.694 -15.532,-0.094 -19.522,13.275 -2.369,8.101 -3.183,15.966 -6.379,23.628 -0.497,1.156 -1.654,1.983 -2.26,3.03 -0.054,1.267 -0.008,2.618 0.247,3.99 3.965,0.605 8.328,0.052 12.298,-0.389 C -11.294,17.607 -2.53,8.333 0,0" /></g></g><g
         transform="matrix(2.0829773,0,0,2.0829773,8.8371277,-440.37689)"
         id="g144"><g
           transform="translate(27.696,543.36)"
           id="g146"><path
             inkscape:connector-curvature="0"
             id="path148"
             style="fill:#016a57;fill-opacity:1;fill-rule:nonzero;stroke:none"
             d="m 0,0 c -0.937,-0.883 -1.269,-3.143 -2.811,-2.645 -1.433,0.993 0.607,1.93 0.663,2.92 C -1.542,1.101 -0.386,1.048 0,0" /></g></g><g
         transform="matrix(2.0829773,0,0,2.0829773,8.8371277,-440.37689)"
         id="g150"><g
           transform="translate(89.304,539.006)"
           id="g152"><path
             inkscape:connector-curvature="0"
             id="path154"
             style="fill:#91bbb2;fill-opacity:1;fill-rule:nonzero;stroke:none"
             d="m 0,0 c 2.035,-2.566 2.963,-5.746 4.237,-8.714 0.561,-1.302 1.414,-4.671 3.469,-3.837 0.56,-1.166 0.793,-1.961 -0.029,-2.663 -0.802,-0.687 -3.051,-0.905 -4.086,-1.262 -2.72,-0.935 -5.383,-2.018 -8.023,-3.156 -1.146,-0.494 -13.271,-6.131 -13.036,-6.651 -2.866,6.336 -3.97,14.27 -2.646,21.546 4.74,4.243 10.525,6.004 15.759,8.981 C -2.37,3.639 -1.268,1.599 0,0" /></g></g><g
         transform="matrix(2.0829773,0,0,2.0829773,8.8371277,-440.37689)"
         id="g156"><g
           transform="translate(91.287,526.335)"
           id="g158"><path
             inkscape:connector-curvature="0"
             id="path160"
             style="fill:#000000;fill-opacity:1;fill-rule:nonzero;stroke:none"
             d="m 0,0 c -0.496,-1.216 -2.04,-1.434 -3.305,-1.711 -2.427,-0.606 -4.519,-2.369 -6.89,-2.644 -0.219,0.164 -0.275,0.386 -0.275,0.66 2.866,2.041 6.173,2.866 9.257,4.353 C -0.771,0.493 -0.275,0.437 0,0" /></g></g><g
         transform="matrix(2.0829773,0,0,2.0829773,8.8371277,-440.37689)"
         id="g162"><g
           transform="translate(108.758,515.752)"
           id="g164"><path
             inkscape:connector-curvature="0"
             id="path166"
             style="fill:#692d31;fill-opacity:1;fill-rule:nonzero;stroke:none"
             d="M 0,0 C 1.099,0.661 2.862,0.055 3.69,1.157 3.801,4.188 2.976,6.722 2.921,9.642 L -3.308,8.044 c 0.494,-0.935 0.88,-1.983 1.047,-3.029 0.221,-1.653 0.77,-3.087 0.935,-4.741 L 0,0" /></g></g><g
         transform="matrix(2.0829773,0,0,2.0829773,8.8371277,-440.37689)"
         id="g168"><g
           transform="translate(88.532,518.672)"
           id="g170"><path
             inkscape:connector-curvature="0"
             id="path172"
             style="fill:#692d31;fill-opacity:1;fill-rule:nonzero;stroke:none"
             d="m 0,0 c 1.047,-2.975 1.708,-6.005 1.984,-9.255 0.496,-0.882 1.486,-1.05 2.203,-0.937 1.211,0.164 2.37,0.99 2.92,2.093 -0.274,3.472 -0.99,6.776 -1.431,10.194 L 0,0" /></g></g><g
         transform="matrix(2.0829773,0,0,2.0829773,8.8371277,-440.37689)"
         id="g174"><g
           transform="translate(114.32,525.672)"
           id="g176"><path
             inkscape:connector-curvature="0"
             id="path178"
             style="fill:#fffac6;fill-opacity:1;fill-rule:nonzero;stroke:none"
             d="m 0,0 c 0.278,-3.36 1.379,-8.211 -1.486,-10.47 -1.267,0.274 -2.809,0 -4.076,0.274 0,0.056 0,0.166 0,0.276 1.099,0.661 2.862,0.055 3.69,1.157 0.111,3.031 -0.714,5.565 -0.769,8.485 C -1.818,-0.056 -0.714,0.937 0,0" /></g></g><g
         transform="matrix(2.0829773,0,0,2.0829773,8.8371277,-440.37689)"
         id="g180"><g
           transform="translate(106.497,520.767)"
           id="g182"><path
             inkscape:connector-curvature="0"
             id="path184"
             style="fill:#fffac6;fill-opacity:1;fill-rule:nonzero;stroke:none"
             d="m 0,0 c 0.221,-1.653 0.77,-3.087 0.935,-4.741 -1.431,-0.329 -3.581,-0.053 -5.288,-0.274 -0.33,-0.055 -0.551,-0.22 -0.939,-0.164 -0.439,2.037 -0.163,4.188 -0.935,6.225 1.486,1.269 3.472,1.323 5.18,1.983 C -0.553,2.094 -0.167,1.046 0,0" /></g></g><g
         transform="matrix(2.0829773,0,0,2.0829773,8.8371277,-440.37689)"
         id="g186"><g
           transform="translate(98.01,519.83)"
           id="g188"><path
             inkscape:connector-curvature="0"
             id="path190"
             style="fill:#fffac6;fill-opacity:1;fill-rule:nonzero;stroke:none"
             d="m 0,0 c 0.334,-3.598 0.791,-6.968 -0.279,-10.734 -1.353,-4.771 -4.852,-8.224 -9.911,-8.515 -4.083,-0.233 -8.83,1.346 -11.467,4.591 -1.433,1.763 -2.863,3.472 -3.47,5.566 4.848,3.14 9.808,6.06 15.099,8.046 0.22,0.056 0.331,-0.164 0.55,-0.112 1.047,-2.975 1.708,-6.005 1.984,-9.255 0.496,-0.882 1.486,-1.05 2.203,-0.937 1.211,0.164 2.37,0.99 2.92,2.093 -0.274,3.472 -0.99,6.776 -1.431,10.194 C -2.809,1.599 -0.26,2.811 0,0" /></g></g><g
         transform="matrix(2.0829773,0,0,2.0829773,8.8371277,-440.37689)"
         id="g192"><g
           transform="translate(96.964,479.768)"
           id="g194"><path
             inkscape:connector-curvature="0"
             id="path196"
             style="fill:#b9d7cd;fill-opacity:1;fill-rule:nonzero;stroke:none"
             d="m 0,0 c 1.542,-3.912 2.206,-8.209 3.474,-12.288 2.863,-9.587 6.168,-18.958 8.979,-28.6 -1.432,2.48 -4.517,3.031 -6.612,5.07 -1.655,1.543 -4.959,2.921 -4.354,5.785 -3.914,9.315 -8.651,18.242 -12.564,27.498 -0.109,0.275 0.055,0.496 0.11,0.662 3.582,0.881 7.054,0.936 10.58,1.984 C -0.167,0.222 -0.167,-0.109 0,0" /></g></g><g
         transform="matrix(2.0829773,0,0,2.0829773,8.8371277,-440.37689)"
         id="g198"><g
           transform="translate(114.432,448.415)"
           id="g200"><path
             inkscape:connector-curvature="0"
             id="path202"
             style="fill:#e19f13;fill-opacity:1;fill-rule:nonzero;stroke:none"
             d="M 0,0 C -1.709,-3.416 -2.094,-7.496 -2.753,-11.242 -3.746,-8.984 -3.969,-6.228 -5.18,-3.969 -5.619,-1.598 -6.336,0.66 -7,2.92 -4.407,2.647 -2.26,1.154 0,0" /></g></g><g
         transform="matrix(2.0829773,0,0,2.0829773,8.8371277,-440.37689)"
         id="g204"><g
           transform="translate(96.302,450.288)"
           id="g206"><path
             inkscape:connector-curvature="0"
             id="path208"
             style="fill:#e19f13;fill-opacity:1;fill-rule:nonzero;stroke:none"
             d="m 0,0 c 0.11,-0.662 -1.045,-0.827 -0.937,-1.597 2.866,-4.078 7.055,-7.165 11.132,-9.368 0.336,-0.183 -2.661,-8.335 -3.555,-8.597 -1.144,-0.336 -5.424,3.318 -6.399,4.119 -0.965,0.796 -4.225,3.979 -4.044,5.358 0.495,3.747 2.096,6.999 3.14,10.47 C -0.331,0.549 -0.22,0.11 0,0" /></g></g><g
         transform="matrix(2.0829773,0,0,2.0829773,8.8371277,-440.37689)"
         id="g210"><g
           transform="translate(116.802,444.613)"
           id="g212"><path
             inkscape:connector-curvature="0"
             id="path214"
             style="fill:#e19f13;fill-opacity:1;fill-rule:nonzero;stroke:none"
             d="m 0,0 c 0.386,-2.315 1.324,-4.41 1.598,-6.78 -0.994,2.37 -5.677,2.039 -3.693,5.455 0.275,1.047 0.498,2.15 0.938,3.143 C -0.276,1.761 -0.33,0.606 0,0" /></g></g><g
         transform="matrix(2.0829773,0,0,2.0829773,8.8371277,-440.37689)"
         id="g216"><g
           transform="translate(118.511,435.355)"
           id="g218"><path
             inkscape:connector-curvature="0"
             id="path220"
             style="fill:#e19f13;fill-opacity:1;fill-rule:nonzero;stroke:none"
             d="m 0,0 c 1.33,-0.913 1.099,-3.807 1.242,-5.12 0.29,-2.633 1.389,-5.153 2.062,-7.72 4.08,-15.539 7.99,-31.246 11.132,-47.114 0.715,-3.639 1.929,-7.001 2.094,-10.803 -9.643,-4.849 -20.772,-7.823 -32.51,-6.117 0.134,-0.021 0.281,6.991 0.17,7.69 -0.577,3.735 -2.516,7.031 -4.871,9.922 -1.604,1.967 -3.541,3.633 -5.331,5.424 -0.876,0.875 0.259,8.334 0.3,9.886 0.091,3.62 0.178,7.241 0.354,10.856 0.324,6.75 1.716,13.211 2.212,19.869 0.11,1.486 3.581,1.93 1.323,3.525 -0.111,0 -0.222,0 -0.386,0 -4.629,-4.847 -8.872,-10.468 -13.611,-15.427 -1.599,0.055 -3.857,0.107 -4.521,1.984 0,1.102 1.325,1.377 1.987,1.984 0.275,-0.882 -0.11,-2.093 0.935,-2.535 0.828,0.165 1.048,1.104 1.323,1.707 -0.163,3.746 -1.488,7.494 -5.124,9.258 -1.324,0.664 -2.533,1.434 -3.969,1.707 -2.517,-3.293 -2.287,-1.34 -2.174,0.643 3.25,2.398 5.813,2.775 8.787,5.201 3.307,2.755 7.11,4.958 10.139,8.32 0.276,0.055 0.442,-0.054 0.662,-0.109 3.194,-4.244 7.605,-8.71 12.455,-10.855 4.022,1.595 2.479,6.611 4.905,9.369 0.936,-0.332 1.046,-1.493 1.705,-2.207 0.773,-1.874 1.546,-3.803 2.922,-5.291 0.662,-0.11 0.828,0.606 1.047,1.047 0.275,2.919 -0.604,5.896 0.275,8.597 C -2.701,3.14 -1.544,1.046 0,0" /></g></g><g
         transform="matrix(2.0829773,0,0,2.0829773,8.8371277,-440.37689)"
         id="g222"><g
           transform="translate(78.17,418.821)"
           id="g224"><path
             inkscape:connector-curvature="0"
             id="path226"
             style="fill:#b9d7cd;fill-opacity:1;fill-rule:nonzero;stroke:none"
             d="m 0,0 c 0.609,-0.715 1.104,-1.597 1.104,-2.423 -0.495,0 -0.881,-0.386 -1.322,-0.497 -2.286,-2.96 -13.95,-12.957 -15.209,-18.791 -1.93,0.663 -3.471,2.094 -5.181,3.198 -2.314,-0.885 -0.22,-2.481 0.774,-3.198 5.399,-3.8 11.02,-6.943 16.971,-9.365 9.863,-4.08 21.821,-11.078 24.576,-22.761 1.322,-5.676 -1.1,-10.469 -4.518,-14.438 -4.738,-5.456 -12.069,-7.326 -19.175,-5.398 -5.678,1.598 -10.802,5.398 -14.385,10.855 -1.211,1.709 -1.761,3.799 -1.707,5.783 0.165,0.276 0.629,0.194 0.959,0.194 0.121,-0.448 -0.298,-0.799 -0.188,-1.238 0.993,-5.071 6.449,-8.485 10.578,-10.691 2.924,-1.599 7.332,-1.876 10.031,0.495 1.35,1.184 1.094,2.971 0.975,4.568 -0.393,5.391 -2.416,11.058 -7.146,14.113 -3.416,2.206 -7.274,3.967 -10.745,6.061 -6.778,4.078 -13.335,10.248 -17.691,16.918 -1.873,2.864 1.159,5.509 2.868,7.658 6.886,8.6 16.035,15.543 24.742,21.604 C -2.203,2.317 -0.99,1.102 0,0" /></g></g><g
         transform="matrix(2.0829773,0,0,2.0829773,8.8371277,-440.37689)"
         id="g228"><g
           transform="translate(73.116,360.019)"
           id="g230"><path
             inkscape:connector-curvature="0"
             id="path232"
             style="fill:#000000;fill-opacity:1;fill-rule:nonzero;stroke:none"
             d="m 0,0 c 0.136,-0.206 0.23,-0.43 0.266,-0.676 0.176,-1.218 -0.245,-2.356 -1.461,-2.803 -0.784,-0.291 -1.627,-0.216 -2.446,-0.262 -0.653,-0.037 -1.289,-0.105 -1.94,0.046 -1.195,0.275 -2.17,1.38 -2.423,2.544 -0.29,1.336 0.921,2.264 2.026,2.69 1.394,0.535 2.547,0.713 3.909,-0.004 C -1.396,1.181 -0.46,0.697 0,0" /></g></g><g
         transform="matrix(2.0829773,0,0,2.0829773,8.8371277,-440.37689)"
         id="g234"><g
           transform="translate(132.673,356.663)"
           id="g236"><path
             inkscape:connector-curvature="0"
             id="path238"
             style="fill:#b9d7cd;fill-opacity:1;fill-rule:nonzero;stroke:none"
             d="m 0,0 c 0.331,-7.439 0.658,-15.76 -5.679,-20.666 -2.974,-2.258 -6.445,-3.691 -10.302,-4.078 -1.487,-0.989 -1.324,-2.754 -1.487,-4.242 -2.039,-22.152 -2.095,-44.524 -2.204,-66.897 -0.058,-6.777 -1.05,-13.943 -0.663,-20.5 -0.498,-1.267 -1.819,-1.156 -2.811,-1.487 -8.817,-2.864 -18.019,-8.819 -27.882,-5.122 -2.48,3.305 -2.975,7.492 -3.693,11.514 -1.104,5.785 -0.498,12.289 -3.087,17.414 5.733,-3.69 9.039,-9.809 11.407,-15.594 0.275,-0.168 0.387,-0.609 0.773,-0.496 0.66,0.55 0.274,1.706 0.274,2.478 0,1.434 -1.927,2.479 -0.772,3.693 2.594,-0.164 4.906,-1.048 7.275,-1.818 0.663,0.715 -0.714,2.037 1.047,2.26 6.887,3.964 8.534,11.242 9.141,18.573 0.77,9.314 1.542,18.076 1.706,27.664 0.081,4.938 0,9.614 -0.17,14.547 -0.171,4.962 -0.01,9.826 -0.964,14.206 -0.97,4.446 -3.488,7.279 -6.195,10.829 -1.967,2.585 -2.942,5.236 -3.242,8.46 2.865,1.768 4.078,4.856 5.786,7.279 6.501,-0.827 13.225,-0.058 19.452,1.157 C -8.048,0 -4.464,1.873 -0.388,2.863 -0.276,1.93 -0.056,0.936 0,0" /></g></g><g
         transform="matrix(2.0829773,0,0,2.0829773,8.8371277,-440.37689)"
         id="g240"><g
           transform="translate(126.224,330.491)"
           id="g242"><path
             inkscape:connector-curvature="0"
             id="path244"
             style="fill:#b9d7cd;fill-opacity:1;fill-rule:nonzero;stroke:none"
             d="m 0,0 c -1.377,-4.908 -2.535,-9.865 -3.471,-14.826 -1.101,-5.728 -2.095,-11.352 -2.37,-17.195 -0.773,-16.032 0.441,-32.786 5.181,-47.332 0.331,-1.158 0.991,-2.207 1.047,-3.475 -1.268,-1.154 -3.306,-2.148 -3.582,-3.965 0.384,-0.992 1.32,-0.275 1.872,-0.112 1.323,0.882 2.205,2.757 3.968,2.647 1.488,1.762 3.804,1.543 5.896,1.708 0.166,-2.922 -1.486,-6.555 0.441,-9.26 0.331,-0.108 0.607,0.279 0.662,0.554 0.825,4.683 1.599,9.37 3.527,13.613 1.212,2.531 2.81,5.673 5.841,6.612 -4.078,-6.506 -2.7,-15.211 -5.402,-22.209 -0.99,-2.535 -3.305,-5.18 -5.949,-6.119 -4.299,0.884 -8.597,1.652 -12.455,3.473 -2.643,1.213 -5.346,2.314 -7.66,4.355 1.158,12.783 1.378,25.622 1.709,38.627 0.166,6.561 0.274,13.445 0.274,20.057 0,10.472 1.819,20.611 2.536,30.97 2.59,0.715 5.346,1.047 7.495,2.756 C 0.276,1.155 0.164,0.275 0,0" /></g></g><g
         transform="matrix(2.0829773,0,0,2.0829773,8.8371277,-440.37689)"
         id="g246"><g
           transform="translate(156.478,271.857)"
           id="g248"><path
             inkscape:connector-curvature="0"
             id="path250"
             style="fill:#b9d7cd;fill-opacity:1;fill-rule:nonzero;stroke:none"
             d="m 0,0 c 2.589,-5.292 2.81,-12.012 2.754,-18.073 -0.056,0 -0.165,0 -0.219,0 -1.654,3.25 -3.748,7.766 -7.715,8.595 -4.794,0.937 -9.368,-0.993 -12.125,-5.293 -1.376,-2.146 -2.644,-4.238 -3.305,-6.608 -1.378,-0.446 -3.031,-0.276 -4.353,-0.664 -1.103,0.057 -1.874,-0.661 -2.922,-0.661 -1.544,2.977 -2.59,6.171 -3.029,9.643 0.052,0.056 0.163,0.166 0.22,0.275 5.621,0.663 12.4,-1.985 16.257,3.308 0.495,5.124 3.304,10.359 8.097,12.672 C -3.583,3.526 -1.213,2.535 0,0" /></g></g><g
         transform="matrix(2.0829773,0,0,2.0829773,8.8371277,-440.37689)"
         id="g252"><g
           transform="translate(81.37,271.746)"
           id="g254"><path
             inkscape:connector-curvature="0"
             id="path256"
             style="fill:#b9d7cd;fill-opacity:1;fill-rule:nonzero;stroke:none"
             d="m 0,0 c 1.376,-3.968 1.156,-8.542 2.369,-12.563 0.991,-3.141 5.18,-1.488 7.659,-1.323 2.81,0.992 5.73,1.6 7.935,3.856 -0.33,-1.268 -0.153,-2.059 -1.432,-3.58 -2.262,-2.59 -5.238,-4.906 -8.597,-3.969 -1.487,0.385 -3.139,0.442 -4.629,0.773 -2.865,3.528 -5.621,8.376 -10.03,10.303 -2.037,0.223 -4.462,0.938 -5.949,-0.88 0.329,1.818 1.212,3.8 2.203,5.509 1.322,2.26 3.142,4.52 5.841,4.905 C -2.425,3.363 -0.662,1.875 0,0" /></g></g><g
         transform="matrix(2.0829773,0,0,2.0829773,8.8371277,-440.37689)"
         id="g258"><g
           transform="translate(73.046,256.263)"
           id="g260"><path
             inkscape:connector-curvature="0"
             id="path262"
             style="fill:#000000;fill-opacity:1;fill-rule:nonzero;stroke:none"
             d="m 0,0 c 1.732,-3.896 -2.179,-12.783 -5.948,-6.561 -1.116,1.844 -1.395,4.138 -0.662,6.176 0.494,1.377 1.048,3.137 2.754,3.69 C -2.091,3.14 -0.714,1.597 0,0" /></g></g><g
         transform="matrix(2.0829773,0,0,2.0829773,8.8371277,-440.37689)"
         id="g264"><g
           transform="translate(153.279,253.505)"
           id="g266"><path
             inkscape:connector-curvature="0"
             id="path268"
             style="fill:#000000;fill-opacity:1;fill-rule:nonzero;stroke:none"
             d="m 0,0 c 1.655,-3.027 0.332,-6.777 -1.044,-9.532 -0.497,-0.991 -1.652,-1.267 -2.646,-0.937 -2.127,0.711 -2.716,3.696 -2.866,5.674 -0.176,2.316 0.518,5.309 2.591,6.614 C -2.477,2.758 -0.716,1.435 0,0" /></g></g><g
         transform="matrix(2.0829773,0,0,2.0829773,8.8371277,-440.37689)"
         id="g270"><g
           transform="translate(156.213,375.466)"
           id="g272"><path
             inkscape:connector-curvature="0"
             id="path274"
             style="fill:#7a87c2;fill-opacity:1;fill-rule:nonzero;stroke:none"
             d="M 0,0 C 0.05,-0.18 0.059,-0.387 0.055,-0.568 0.038,-1.391 -0.914,-3.15 -1.811,-3.309 -3.532,-3.613 -2.268,0.428 -0.516,0.432 -0.214,0.435 -0.067,0.244 0,0" /></g></g><g
         transform="matrix(2.0829773,0,0,2.0829773,8.8371277,-440.37689)"
         id="g276"><g
           transform="translate(151.736,366.591)"
           id="g278"><path
             inkscape:connector-curvature="0"
             id="path280"
             style="fill:#7a87c2;fill-opacity:1;fill-rule:nonzero;stroke:none"
             d="M 0,0 C 0.055,-0.606 -0.053,-1.156 -0.384,-1.598 -1.267,-1.707 -1.817,-0.99 -2.368,-0.385 -2.204,0.33 -0.55,1.047 0,0" /></g></g><g
         transform="matrix(2.0829773,0,0,2.0829773,8.8371277,-440.37689)"
         id="g282"><g
           transform="translate(77.906,362.55)"
           id="g284"><path
             inkscape:connector-curvature="0"
             id="path286"
             style="fill:#7a87c2;fill-opacity:1;fill-rule:nonzero;stroke:none"
             d="m 0,0 c 0.412,-0.488 0.564,-0.924 -0.209,-0.9 -0.519,0.015 -1.126,0.162 -1.512,0.531 -0.363,0.347 -0.77,1.779 0.042,1.914 0.361,0.06 0.881,-0.599 1.071,-0.853 C -0.437,0.463 -0.204,0.24 0,0" /></g></g><g
         transform="matrix(2.0829773,0,0,2.0829773,8.8371277,-440.37689)"
         id="g288"><g
           transform="translate(71.552,358.863)"
           id="g290"><path
             inkscape:connector-curvature="0"
             id="path292"
             style="fill:#7a87c2;fill-opacity:1;fill-rule:nonzero;stroke:none"
             d="m 0,0 c 0.524,-1.2 -1.986,-0.92 -2.62,-0.881 -0.744,0.046 -1.492,0.177 -2.003,0.775 -0.218,0.883 0.608,1.267 1.214,1.434 1.246,0.34 2.734,-0.002 3.373,-1.252 C -0.021,0.051 -0.008,0.027 0,0" /></g></g><g
         transform="matrix(2.0829773,0,0,2.0829773,8.8371277,-440.37689)"
         id="g294"><g
           transform="translate(80.477,357.152)"
           id="g296"><path
             inkscape:connector-curvature="0"
             id="path298"
             style="fill:#7a87c2;fill-opacity:1;fill-rule:nonzero;stroke:none"
             d="M 0,0 C 0.004,-0.054 0.008,-0.113 0.011,-0.18 0.09,-1.157 0.392,-2.151 0.349,-3.133 0.326,-3.67 0.232,-3.667 -0.293,-3.635 c -0.533,0.035 -1.063,0.138 -1.574,0.291 -1.898,0.568 -1.388,3.252 0.389,3.629 0.284,0.059 0.721,0.156 1.012,0.136 C -0.043,0.392 -0.017,0.267 0,0" /></g></g><g
         transform="matrix(2.0829773,0,0,2.0829773,8.8371277,-440.37689)"
         id="g300"><g
           transform="translate(71.422,255.573)"
           id="g302"><path
             inkscape:connector-curvature="0"
             id="path304"
             style="fill:#7a87c2;fill-opacity:1;fill-rule:nonzero;stroke:none"
             d="m 0,0 c 0.547,-2.679 -0.305,-6.611 -1.406,-6.42 -2.841,0.494 -2.608,9.1 -0.44,8.817 C -0.833,2.264 -0.259,1.272 0,0" /></g></g><g
         transform="matrix(2.0829773,0,0,2.0829773,8.8371277,-440.37689)"
         id="g306"><g
           transform="translate(151.193,245.568)"
           id="g308"><path
             inkscape:connector-curvature="0"
             id="path310"
             style="fill:#7a87c2;fill-opacity:1;fill-rule:nonzero;stroke:none"
             d="m 0,0 c -0.313,-0.615 -0.762,-0.987 -1.405,-0.65 -1.073,0.56 -1.166,5.536 -0.586,6.437 0.497,0.775 0.608,1.767 1.434,2.261 C 1.053,6.775 1.043,4.62 0.72,2.775 0.627,2.237 0.448,0.873 0,0" /></g></g><g
         transform="matrix(2.0829773,0,0,2.0829773,8.8371277,-440.37689)"
         id="g312"><g
           transform="translate(65.608,235.485)"
           id="g314"><path
             inkscape:connector-curvature="0"
             id="path316"
             style="fill:#7a87c2;fill-opacity:1;fill-rule:nonzero;stroke:none"
             d="m 0,0 c -0.056,-0.66 -0.274,-1.267 -0.662,-1.814 -2.03,-0.27 -2.366,2.041 -2.216,3.598 0.081,0.859 0.985,4.861 2.219,3.009 C 0.221,3.475 0.221,1.6 0,0" /></g></g><g
         transform="matrix(2.0829773,0,0,2.0829773,8.8371277,-440.37689)"
         id="g318"><g
           transform="translate(155.045,236.591)"
           id="g320"><path
             inkscape:connector-curvature="0"
             id="path322"
             style="fill:#7a87c2;fill-opacity:1;fill-rule:nonzero;stroke:none"
             d="M 0,0 C 0.164,-1.986 -1.269,-3.197 -2.26,-4.633 -3.581,-4.795 -2.535,-3.309 -2.646,-2.647 -2.04,-1.656 -1.929,2.588 0,0" /></g></g><g
         transform="matrix(2.0829773,0,0,2.0829773,8.8371277,-440.37689)"
         id="g324"><g
           transform="translate(75.417,231.796)"
           id="g326"><path
             inkscape:connector-curvature="0"
             id="path328"
             style="fill:#7a87c2;fill-opacity:1;fill-rule:nonzero;stroke:none"
             d="M 0,0 C -0.22,-0.664 -1.212,-0.389 -1.708,-0.275 -3.031,1.154 -3.141,3.361 -2.645,5.18 -2.149,5.619 -1.82,4.904 -1.432,4.629 -0.497,3.305 0.55,1.652 0,0" /></g></g><g
         transform="matrix(2.0829773,0,0,2.0829773,8.8371277,-440.37689)"
         id="g330"><g
           transform="translate(146.447,236.036)"
           id="g332"><path
             inkscape:connector-curvature="0"
             id="path334"
             style="fill:#7a87c2;fill-opacity:1;fill-rule:nonzero;stroke:none"
             d="m 0,0 c 0.552,-2.146 -0.605,-4.131 -2.149,-5.563 -0.661,-0.167 -1.377,0.165 -1.322,0.934 0.221,2.151 0.551,4.3 2.26,5.678 C -0.55,1.102 -0.165,0.555 0,0" /></g></g><g
         transform="matrix(2.0829773,0,0,2.0829773,8.8371277,-440.37689)"
         id="g336"><g
           transform="translate(89.916,519.207)"
           id="g338"><path
             inkscape:connector-curvature="0"
             id="path340"
             style="fill:#692d31;fill-opacity:1;fill-rule:nonzero;stroke:none"
             d="m 0,0 2.953,1.089 c 0,0 2.323,-8.123 1.725,-9.566 C 4.213,-9.596 1.885,-10.137 1.864,-9.462 1.828,-8.406 0,0 0,0" /></g></g><g
         transform="matrix(2.0829773,0,0,2.0829773,8.8371277,-440.37689)"
         id="g342"><g
           transform="translate(107.113,524.236)"
           id="g344"><path
             inkscape:connector-curvature="0"
             id="path346"
             style="fill:#692d31;fill-opacity:1;fill-rule:nonzero;stroke:none"
             d="m 0,0 3.026,0.739 c 0,0 1.722,-5.91 1.159,-7.527 C 4.01,-7.292 1.389,-7.818 1.373,-7.245 1.302,-4.749 0,0 0,0" /></g></g></g></g></svg>