<?xml version="1.0" encoding="UTF-8"?>
<svg xmlns="http://www.w3.org/2000/svg" xmlns:xlink="http://www.w3.org/1999/xlink" width="146.74pt" height="144.91pt" viewBox="0 0 146.74 144.91" version="1.1">
<defs>
<clipPath id="clip1">
  <path d="M 142 100 L 146.738281 100 L 146.738281 104 L 142 104 Z M 142 100 "/>
</clipPath>
<clipPath id="clip2">
  <path d="M 142 54 L 146.738281 54 L 146.738281 59 L 142 59 Z M 142 54 "/>
</clipPath>
<clipPath id="clip3">
  <path d="M 142 69 L 146.738281 69 L 146.738281 75 L 142 75 Z M 142 69 "/>
</clipPath>
<clipPath id="clip4">
  <path d="M 15 134 L 85 134 L 85 144.910156 L 15 144.910156 Z M 15 134 "/>
</clipPath>
</defs>
<g id="surface1">
<path style=" stroke:none;fill-rule:evenodd;fill:rgb(100%,100%,100%);fill-opacity:1;" d="M 109.875 9.503906 C 117.027344 10.230469 114.390625 23.507813 113.742188 29.621094 C 111.507813 25.664063 114.40625 16.578125 112.195313 12.597656 C 106.898438 12.414063 108.535156 17.980469 109.101563 21.882813 C 104.84375 19.765625 105.167969 10.808594 109.875 9.503906 "/>
<path style=" stroke:none;fill-rule:evenodd;fill:rgb(100%,100%,100%);fill-opacity:1;" d="M 75.054688 11.824219 C 76.574219 12.886719 75.472656 16.566406 76.601563 18.015625 C 72.550781 17.898438 73.695313 14.109375 75.054688 11.824219 "/>
<path style=" stroke:none;fill-rule:evenodd;fill:rgb(13.699341%,12.199402%,12.5%);fill-opacity:1;" d="M 84.339844 31.167969 C 81.5 33.453125 78.398438 29.402344 75.828125 28.847656 C 77.390625 25.644531 81.367188 30.902344 84.339844 31.167969 "/>
<path style=" stroke:none;fill-rule:evenodd;fill:rgb(13.699341%,12.199402%,12.5%);fill-opacity:1;" d="M 64.222656 28.847656 C 66.828125 30.210938 68.191406 28.324219 71.960938 28.847656 C 72.460938 31.339844 63.71875 31.339844 64.222656 28.847656 "/>
<path style=" stroke:none;fill-rule:evenodd;fill:rgb(100%,100%,100%);fill-opacity:1;" d="M 115.289063 28.847656 C 118.53125 30.804688 116.839844 39.125 112.195313 38.132813 C 112.320313 37.230469 112.023438 36.753906 111.421875 36.585938 C 113.480469 34.773438 116.625 34.050781 115.289063 28.847656 "/>
<path style=" stroke:none;fill-rule:evenodd;fill:rgb(13.699341%,12.199402%,12.5%);fill-opacity:1;" d="M 61.902344 35.808594 C 61.902344 37.101563 61.902344 38.390625 61.902344 39.679688 C 59.773438 41.050781 53.617188 41.097656 53.390625 38.132813 C 53.914063 33.949219 59.160156 33.867188 61.902344 35.808594 "/>
<path style=" stroke:none;fill-rule:evenodd;fill:rgb(13.699341%,12.199402%,12.5%);fill-opacity:1;" d="M 29.402344 51.285156 C 22.691406 52.5 14.207031 50.097656 13.925781 59.023438 C 8.917969 52.875 23.515625 46.617188 29.402344 51.285156 "/>
<path style=" stroke:none;fill-rule:evenodd;fill:rgb(13.699341%,12.199402%,12.5%);fill-opacity:1;" d="M 37.140625 55.929688 C 32.132813 55.816406 29.296875 57.886719 25.535156 59.023438 C 24.972656 61.390625 26.867188 61.300781 26.308594 63.664063 C 23.886719 63.25 23.519531 60.78125 23.214844 58.25 C 28.304688 58.804688 33.871094 52.09375 37.140625 55.929688 "/>
<path style=" stroke:none;fill-rule:evenodd;fill:rgb(13.699341%,12.199402%,12.5%);fill-opacity:1;" d="M 125.351563 94.617188 C 123.234375 91.5625 126.09375 87.253906 125.351563 83.011719 C 124.21875 76.535156 118.078125 73.171875 113.742188 70.628906 C 120.835938 68.898438 131.066406 83.335938 125.351563 94.617188 "/>
<path style=" stroke:none;fill-rule:evenodd;fill:rgb(13.699341%,12.199402%,12.5%);fill-opacity:1;" d="M 30.175781 91.523438 C 25.242188 92.191406 17.046875 99.21875 17.023438 104.675781 C 9.457031 103.257813 23.652344 94.386719 26.308594 90.746094 C 28.101563 90.5 29.277344 90.871094 30.175781 91.523438 "/>
<path style=" stroke:none;fill-rule:evenodd;fill:rgb(100%,100%,100%);fill-opacity:1;" d="M 78.921875 99.257813 C 78.148438 96.140625 83.109375 92.113281 86.660156 90.746094 C 85.878906 95.382813 81.214844 96.132813 78.921875 99.257813 "/>
<path style=" stroke:none;fill-rule:evenodd;fill:rgb(13.699341%,12.199402%,12.5%);fill-opacity:1;" d="M 16.25 91.523438 C 10.523438 94.566406 3.703125 96.515625 0 101.578125 C 0.921875 96.730469 8.539063 92.132813 16.25 91.523438 "/>
<path style=" stroke:none;fill-rule:evenodd;fill:rgb(100%,100%,100%);fill-opacity:1;" d="M 43.332031 101.578125 C 40.023438 97.5625 33.613281 95.195313 29.402344 100.03125 C 31.050781 91.109375 42.480469 93.648438 43.332031 101.578125 "/>
<g clip-path="url(#clip1)" clip-rule="nonzero">
<path style=" stroke:none;fill-rule:evenodd;fill:rgb(13.699341%,12.199402%,12.5%);fill-opacity:1;" d="M 142.371094 101.578125 C 143.328125 99.691406 147.875 100.644531 146.242188 103.902344 C 144.945313 98.890625 144.222656 106.636719 143.921875 101.578125 C 143.402344 101.578125 142.886719 101.578125 142.371094 101.578125 "/>
</g>
<path style=" stroke:none;fill-rule:evenodd;fill:rgb(100%,100%,100%);fill-opacity:1;" d="M 29.402344 106.996094 C 30.964844 111.214844 34.613281 117.671875 36.367188 124.019531 C 30.769531 123.167969 31.359375 116.132813 27.082031 113.960938 C 28.167969 111.953125 28.15625 108.84375 29.402344 106.996094 "/>
<path style=" stroke:none;fill-rule:evenodd;fill:rgb(100%,100%,100%);fill-opacity:1;" d="M 80.472656 126.339844 C 83.730469 126.078125 81.574219 130.78125 78.921875 129.4375 C 78.933594 127.898438 81.035156 128.449219 80.472656 126.339844 "/>
<path style=" stroke:none;fill-rule:evenodd;fill:rgb(13.699341%,12.199402%,12.5%);fill-opacity:1;" d="M 53.390625 134.078125 C 51.640625 136.199219 50.582031 139.007813 49.519531 141.816406 C 48.230469 141.816406 46.941406 141.816406 45.652344 141.816406 C 45.890625 140.765625 47.589844 141.171875 48.746094 141.042969 C 46.691406 137.816406 50.683594 135.011719 53.390625 134.078125 "/>
<path style=" stroke:none;fill-rule:evenodd;fill:rgb(13.699341%,12.199402%,12.5%);fill-opacity:1;" d="M 102.910156 137.945313 C 102.5 138.570313 102.105469 139.203125 102.136719 140.269531 C 105.570313 140.351563 106.679688 138.105469 110.648438 138.722656 C 107.976563 141.980469 100.339844 140.277344 96.71875 142.589844 C 95.113281 142.15625 95.082031 141.382813 95.945313 140.269531 C 91.316406 140.355469 88.269531 142.792969 85.113281 140.269531 C 89.726563 136.316406 95.734375 140.859375 102.910156 137.945313 "/>
<path style=" stroke:none;fill-rule:evenodd;fill:rgb(13.699341%,12.199402%,12.5%);fill-opacity:1;" d="M 59.582031 0.21875 C 54.40625 1.53125 50.972656 7.707031 52.617188 13.371094 C 48.886719 9.074219 54.542969 -1.675781 59.582031 0.21875 "/>
<path style=" stroke:none;fill-rule:evenodd;fill:rgb(13.699341%,12.199402%,12.5%);fill-opacity:1;" d="M 27.082031 113.960938 C 31.359375 116.132813 30.769531 123.167969 36.367188 124.019531 C 34.613281 117.671875 30.964844 111.214844 29.402344 106.996094 C 28.15625 108.84375 28.167969 111.953125 27.082031 113.960938 Z M 76.601563 18.015625 C 75.472656 16.566406 76.574219 12.886719 75.054688 11.824219 C 73.695313 14.109375 72.550781 17.898438 76.601563 18.015625 Z M 76.601563 11.050781 C 77.671875 8.765625 80.175781 7.917969 81.246094 5.632813 C 78.699219 5.960938 75.527344 9.671875 76.601563 11.050781 Z M 29.402344 100.03125 C 33.613281 95.195313 40.023438 97.5625 43.332031 101.578125 C 42.480469 93.648438 31.050781 91.109375 29.402344 100.03125 Z M 78.921875 129.4375 C 81.574219 130.78125 83.730469 126.078125 80.472656 126.339844 C 81.035156 128.449219 78.933594 127.898438 78.921875 129.4375 Z M 86.660156 90.746094 C 83.109375 92.113281 78.148438 96.140625 78.921875 99.257813 C 81.214844 96.132813 85.878906 95.382813 86.660156 90.746094 Z M 83.566406 11.050781 C 82.410156 9.984375 79.128906 11.15625 78.921875 13.371094 C 84.917969 13.691406 86.28125 9.382813 88.210938 5.632813 C 87.308594 4.984375 86.132813 4.613281 84.339844 4.859375 C 85.414063 7.253906 83.492188 9.65625 83.566406 11.050781 Z M 79.699219 2.539063 C 75.675781 6.253906 71.546875 9.863281 68.089844 14.144531 C 69.5625 17.253906 73.695313 21.171875 76.601563 20.335938 C 75.472656 18.625 72.460938 18.804688 71.960938 16.464844 C 73.3125 10.078125 78.109375 7.140625 81.246094 2.539063 C 83.664063 3.730469 88.363281 2.644531 89.757813 4.859375 C 88.660156 10.492188 83.671875 15.414063 78.152344 14.144531 C 76.648438 15.636719 78.964844 17.257813 78.921875 19.5625 C 85.679688 17.925781 94.53125 20.851563 97.492188 27.300781 C 94.695313 26.730469 91.683594 19.707031 84.339844 21.109375 C 83.367188 21.300781 83.558594 22.648438 84.339844 22.65625 C 83.726563 24.4375 80.703125 22.257813 80.472656 21.109375 C 67.558594 28.046875 45.703125 14.734375 39.460938 32.714844 C 37.621094 44.613281 43.78125 48.511719 50.292969 52.058594 C 51.445313 51.722656 49.988281 51.070313 50.292969 49.738281 C 55.1875 59.707031 79.644531 64.921875 83.566406 50.511719 C 86.152344 57.511719 71.460938 62.667969 64.222656 60.570313 C 63.621094 61.222656 66.527344 64.933594 66.542969 67.535156 C 68.863281 67.535156 71.1875 67.535156 73.507813 67.535156 C 75.097656 67.320313 75.050781 65.46875 75.828125 64.4375 C 91.398438 63.796875 106.519531 56.078125 99.816406 38.132813 C 108.996094 50.777344 96.980469 62.632813 84.339844 65.214844 C 81.695313 65.753906 79.164063 65.015625 76.601563 65.988281 C 75.746094 68.417969 76.367188 69.253906 75.054688 72.175781 C 77.9375 74.085938 80.199219 71.800781 83.566406 72.949219 C 85.308594 70.726563 82.449219 68.386719 85.113281 66.761719 C 89.28125 69.238281 93.316406 67.214844 97.492188 69.855469 C 97.605469 71.773438 97.636719 73.609375 95.945313 73.726563 C 97.15625 74.835938 98.640625 75.675781 99.042969 77.59375 C 97.394531 80.847656 95.988281 84.34375 92.851563 86.105469 C 88.597656 83.910156 81.433594 84.628906 75.054688 84.558594 C 74.691406 86.496094 77.058594 92.332031 78.152344 95.390625 C 81.488281 93.664063 83.898438 87.4375 88.980469 89.972656 C 86.628906 94.84375 82.410156 97.847656 78.921875 101.578125 C 83.96875 98.945313 84.691406 101.144531 88.980469 98.484375 C 95.425781 104.464844 95.050781 128.019531 85.113281 129.4375 C 91.996094 125.941406 94.109375 106.734375 88.210938 100.03125 C 87.652344 112.8125 92.441406 135.867188 68.089844 132.53125 C 61.132813 127.582031 67.457031 116.179688 72.734375 113.960938 C 70.847656 110.542969 62.507813 115.378906 58.804688 111.640625 C 55.96875 112.476563 51.488281 116.121094 54.9375 118.601563 C 53.238281 120.992188 50.925781 117.515625 51.070313 115.507813 C 51.925781 113.75 55.765625 112.511719 57.257813 109.316406 C 62.074219 113.363281 70.410156 109.097656 75.054688 113.1875 C 71.835938 116.890625 63.121094 122.621094 68.089844 129.4375 C 70.570313 129.253906 65.632813 125.070313 69.640625 125.566406 C 70.105469 127.160156 68.390625 130.941406 71.1875 130.207031 C 71.050781 125.839844 72.066406 119.664063 75.054688 116.28125 C 75.710938 119.078125 68.707031 127.042969 75.054688 129.4375 C 77.234375 128.65625 74.84375 126.148438 75.054688 124.792969 C 77.382813 124.011719 76.425781 126.519531 76.601563 127.886719 C 81.648438 125.605469 81.949219 123.375 84.339844 118.601563 C 86.503906 120.566406 82.207031 122.613281 82.792969 125.566406 C 90.09375 120.582031 85.277344 110.945313 85.886719 102.355469 C 84.988281 102.480469 84.511719 102.183594 84.339844 101.578125 C 80.71875 100.796875 81.769531 104.683594 78.152344 103.902344 C 78.128906 103.148438 77.203125 103.300781 76.601563 103.128906 C 75.53125 96.460938 75.324219 88.933594 71.960938 84.558594 C 76.6875 81.773438 88.722656 82.582031 92.851563 83.785156 C 93.867188 83.511719 94.070313 82.421875 95.171875 82.238281 C 95.75 79.855469 93.046875 80.75 93.625 78.367188 C 95.550781 78.453125 96.019531 79.816406 97.492188 78.367188 C 96.242188 77.296875 96.53125 74.6875 93.625 75.273438 C 93.5 73.085938 95.949219 73.46875 95.945313 71.402344 C 94.082031 67.5625 91.648438 70.265625 88.980469 71.402344 C 89.34375 68.976563 87.035156 69.222656 85.886719 68.308594 C 84.613281 69.511719 85.554688 71.917969 86.660156 72.949219 C 82.421875 75.355469 78.207031 73.15625 72.734375 74.5 C 70.839844 72.675781 73.890625 73.058594 73.507813 70.628906 C 71.46875 69.574219 68.230469 69.714844 65.769531 69.082031 C 62.421875 69.089844 62.714844 72.730469 60.351563 73.726563 C 53.9375 74.207031 52.484375 69.726563 47.199219 69.082031 C 46.078125 66.15625 49.324219 67.597656 48.746094 65.214844 C 47.71875 61.890625 45.289063 65 43.332031 65.214844 C 43.460938 63.277344 42.144531 62.792969 41.011719 62.117188 C 38.457031 62.566406 39.902344 65.039063 40.234375 66.761719 C 38.019531 66.609375 36.011719 66.664063 36.367188 69.082031 C 40.296875 71.25 39.480469 73.425781 41.78125 76.820313 C 46.03125 73.703125 50.703125 78.445313 53.390625 81.460938 C 49.734375 88.121094 45.46875 96.347656 51.84375 103.128906 C 50.261719 103.867188 48.78125 104.707031 47.199219 105.449219 C 47.085938 107.371094 47.597656 108.660156 48.746094 109.316406 C 45.394531 107.757813 42.140625 99.425781 36.367188 97.710938 C 33.515625 98.210938 32.308594 100.359375 31.722656 103.128906 C 33.414063 103.058594 36.058594 105.761719 38.6875 106.996094 C 37.070313 108.8125 34.367188 105.167969 32.496094 104.675781 C 30.839844 105.890625 31.609375 111.1875 33.273438 111.640625 C 35.195313 111.523438 33.496094 109.019531 33.273438 108.542969 C 35.800781 109.636719 35.203125 120.53125 40.234375 121.699219 C 41.023438 119.59375 37.605469 115.066406 37.914063 110.863281 C 40.65625 117.410156 41.585938 125.765625 50.292969 126.339844 C 43.992188 123.097656 45.304688 112.246094 39.460938 108.542969 C 46.671875 108.738281 43.253906 121.65625 51.070313 124.019531 C 52.175781 121.847656 47.757813 118.582031 47.972656 114.734375 C 51.679688 116.699219 50.265625 123.789063 54.9375 124.792969 C 49.21875 129.914063 41.722656 127.34375 37.914063 122.472656 C 36.644531 128.824219 51.90625 133.46875 54.9375 127.113281 C 56.765625 133.996094 44.601563 131.246094 39.460938 130.207031 C 34.289063 124.472656 20.394531 114.730469 29.402344 104.675781 C 24.082031 89.726563 45.089844 89.457031 44.105469 103.128906 C 46.542969 103.996094 45.855469 103.195313 48.746094 103.128906 C 44.238281 95.6875 47.941406 87.5625 51.84375 82.238281 C 50.113281 80.097656 46.984375 79.355469 45.652344 76.820313 C 43.203125 76.691406 43.066406 78.875 40.234375 78.367188 C 40.253906 75.757813 36.167969 74.921875 38.6875 72.175781 C 30.082031 71.085938 38.65625 63.902344 39.460938 60.570313 C 42.304688 61.855469 46.347656 61.941406 49.519531 62.890625 C 48.808594 69.144531 53.902344 70.488281 59.582031 72.175781 C 63.128906 70.433594 59.875 66.691406 64.222656 65.988281 C 55.769531 53.652344 25.683594 46.691406 41.011719 26.523438 C 48.375 16.832031 63.730469 23.28125 73.507813 21.109375 C 71.558594 18.929688 69.347656 17.015625 65.769531 16.464844 C 69.171875 10.582031 74.085938 6.210938 79.699219 2.539063 "/>
<path style=" stroke:none;fill-rule:evenodd;fill:rgb(100%,100%,100%);fill-opacity:1;" d="M 84.339844 4.859375 C 86.132813 4.613281 87.308594 4.984375 88.210938 5.632813 C 86.28125 9.382813 84.917969 13.691406 78.921875 13.371094 C 79.128906 11.15625 82.410156 9.984375 83.566406 11.050781 C 83.492188 9.65625 85.414063 7.253906 84.339844 4.859375 "/>
<path style=" stroke:none;fill-rule:evenodd;fill:rgb(100%,100%,100%);fill-opacity:1;" d="M 81.246094 5.632813 C 80.175781 7.917969 77.671875 8.765625 76.601563 11.050781 C 75.527344 9.671875 78.699219 5.960938 81.246094 5.632813 "/>
<path style=" stroke:none;fill-rule:evenodd;fill:rgb(13.699341%,12.199402%,12.5%);fill-opacity:1;" d="M 111.421875 36.585938 C 112.023438 36.753906 112.320313 37.230469 112.195313 38.132813 C 116.839844 39.125 118.53125 30.804688 115.289063 28.847656 C 116.625 34.050781 113.480469 34.773438 111.421875 36.585938 Z M 109.101563 21.882813 C 108.535156 17.980469 106.898438 12.414063 112.195313 12.597656 C 114.40625 16.578125 111.507813 25.664063 113.742188 29.621094 C 114.390625 23.507813 117.027344 10.230469 109.875 9.503906 C 105.167969 10.808594 104.84375 19.765625 109.101563 21.882813 Z M 110.648438 7.953125 C 112.652344 9.042969 114.222656 10.570313 116.0625 11.824219 C 113.3125 23.617188 123.472656 34.695313 113.742188 39.679688 C 109.527344 35.542969 102.332031 38.378906 97.492188 35.808594 C 98.492188 31.652344 104.664063 32.664063 108.328125 31.167969 C 110.382813 32.964844 106.273438 33.238281 108.328125 35.035156 C 111.785156 34.640625 110.222656 31.527344 109.875 28.847656 C 104.792969 30.828125 101.171875 31.488281 95.945313 31.941406 C 95.679688 27.261719 104.34375 31.644531 108.328125 27.300781 C 106.871094 19.179688 101.191406 11.765625 110.648438 7.953125 "/>
<path style=" stroke:none;fill-rule:evenodd;fill:rgb(13.699341%,12.199402%,12.5%);fill-opacity:1;" d="M 131.539063 21.882813 C 133.78125 24.539063 135.335938 27.890625 136.183594 31.941406 C 134.453125 28.769531 132.429688 25.894531 131.539063 21.882813 "/>
<path style=" stroke:none;fill-rule:evenodd;fill:rgb(13.699341%,12.199402%,12.5%);fill-opacity:1;" d="M 124.574219 27.300781 C 126.285156 27.910156 126.511719 30.003906 127.671875 31.167969 C 125.199219 36.175781 123.160156 41.617188 119.160156 45.09375 C 121.371094 39.402344 128.421875 34.402344 124.574219 27.300781 "/>
<g clip-path="url(#clip2)" clip-rule="nonzero">
<path style=" stroke:none;fill-rule:evenodd;fill:rgb(13.699341%,12.199402%,12.5%);fill-opacity:1;" d="M 142.371094 55.152344 C 145.5625 53.109375 148.855469 57.460938 143.144531 58.25 C 141.601563 58.460938 149.632813 54.585938 142.371094 55.152344 "/>
</g>
<g clip-path="url(#clip3)" clip-rule="nonzero">
<path style=" stroke:none;fill-rule:evenodd;fill:rgb(13.699341%,12.199402%,12.5%);fill-opacity:1;" d="M 142.371094 71.402344 C 144.429688 70.976563 141.785156 73.921875 143.921875 73.726563 C 147.21875 73.417969 144.089844 67.898438 146.242188 70.628906 C 148.65625 73.695313 141.402344 77.242188 142.371094 71.402344 "/>
</g>
<path style=" stroke:none;fill-rule:evenodd;fill:rgb(13.699341%,12.199402%,12.5%);fill-opacity:1;" d="M 109.101563 99.257813 C 109.03125 96.746094 104.484375 98.714844 105.230469 95.390625 C 105.921875 95.046875 106.617188 94.710938 106.777344 93.84375 C 109.1875 94.527344 109.53125 97.28125 111.421875 98.484375 C 108.972656 109.449219 104.371094 118.261719 97.492188 124.792969 C 100.550781 118.5625 108.476563 110.5 109.101563 99.257813 "/>
<g clip-path="url(#clip4)" clip-rule="nonzero">
<path style=" stroke:none;fill-rule:evenodd;fill:rgb(13.699341%,12.199402%,12.5%);fill-opacity:1;" d="M 44.878906 142.589844 C 34.679688 145.820313 24.789063 144.054688 15.476563 143.363281 C 20.328125 138.976563 23.914063 142.671875 30.949219 141.042969 C 30.191406 142.863281 26.484375 141.734375 25.535156 143.363281 C 31.171875 144.859375 37.25 140.128906 38.6875 134.851563 C 40.464844 135.695313 37.917969 138.652344 37.140625 139.492188 C 38.410156 140.097656 41.390625 142.0625 37.140625 141.816406 C 47.257813 143.75 60.707031 141.574219 66.542969 134.851563 C 64.523438 137.472656 62.78125 140.371094 59.582031 141.816406 C 63.472656 142.597656 71.933594 141.285156 75.054688 138.722656 C 75.191406 136.523438 69.992188 139.65625 71.1875 136.398438 C 73.46875 136.953125 75.976563 137.28125 77.375 138.722656 C 78.054688 141.207031 74.828125 139.78125 75.054688 141.816406 C 79.054688 142.203125 80.085938 139.625 84.339844 140.269531 C 79.695313 142.847656 73.019531 143.390625 67.316406 144.910156 C 66.078125 141.863281 70.660156 144.640625 70.410156 142.589844 C 63.039063 143.640625 52.398438 143.433594 43.332031 144.910156 C 43.605469 143.894531 44.695313 143.695313 44.878906 142.589844 "/>
</g>
</g>
</svg>
