<?xml version="1.0" encoding="UTF-8" standalone="no"?>
<!-- Created with Inkscape (http://www.inkscape.org/) -->
<svg
   xmlns:dc="http://purl.org/dc/elements/1.1/"
   xmlns:cc="http://creativecommons.org/ns#"
   xmlns:rdf="http://www.w3.org/1999/02/22-rdf-syntax-ns#"
   xmlns:svg="http://www.w3.org/2000/svg"
   xmlns="http://www.w3.org/2000/svg"
   xmlns:sodipodi="http://sodipodi.sourceforge.net/DTD/sodipodi-0.dtd"
   xmlns:inkscape="http://www.inkscape.org/namespaces/inkscape"
   width="744.09448819"
   height="1052.3622047"
   id="svg2"
   sodipodi:version="0.32"
   inkscape:version="0.46"
   sodipodi:docname="Woodstock.svg"
   inkscape:output_extension="org.inkscape.output.svg.inkscape">
  <defs
     id="defs4">
    <inkscape:perspective
       sodipodi:type="inkscape:persp3d"
       inkscape:vp_x="0 : 526.18109 : 1"
       inkscape:vp_y="0 : 1000 : 0"
       inkscape:vp_z="744.09448 : 526.18109 : 1"
       inkscape:persp3d-origin="372.04724 : 350.78739 : 1"
       id="perspective10" />
    <inkscape:perspective
       id="perspective2390"
       inkscape:persp3d-origin="372.04724 : 350.78739 : 1"
       inkscape:vp_z="744.09448 : 526.18109 : 1"
       inkscape:vp_y="0 : 1000 : 0"
       inkscape:vp_x="0 : 526.18109 : 1"
       sodipodi:type="inkscape:persp3d" />
  </defs>
  <sodipodi:namedview
     id="base"
     pagecolor="#ffffff"
     bordercolor="#666666"
     borderopacity="1.0"
     gridtolerance="10000"
     guidetolerance="10"
     objecttolerance="10"
     inkscape:pageopacity="0.0"
     inkscape:pageshadow="2"
     inkscape:zoom="0.39869565"
     inkscape:cx="957.536"
     inkscape:cy="173.46148"
     inkscape:document-units="px"
     inkscape:current-layer="layer1"
     showgrid="false"
     showguides="true"
     inkscape:guide-bbox="true"
     inkscape:window-width="1280"
     inkscape:window-height="1002"
     inkscape:window-x="1148"
     inkscape:window-y="-4" />
  <metadata
     id="metadata7">
    <rdf:RDF>
      <cc:Work
         rdf:about="">
        <dc:format>image/svg+xml</dc:format>
        <dc:type
           rdf:resource="http://purl.org/dc/dcmitype/StillImage" />
      </cc:Work>
    </rdf:RDF>
  </metadata>
  <g
     inkscape:label="Layer 1"
     inkscape:groupmode="layer"
     id="layer1">
    <path
       style="fill:#ffcc00;fill-opacity:1"
       d="M 1179.2679,946.91252 C 1177.8442,945.48122 1165.6624,944.60712 1149.1316,943.43762 C 1127.1128,941.87972 1126.6437,939.38092 1123.3272,934.09292 C 1105.4907,899.63222 1137.7116,923.68242 1144.0546,907.45342 C 1146.098,898.53722 1168.9717,896.47632 1192.91,903.68062 C 1218.4792,911.37582 1231.209,900.21062 1240.2027,860.66812 C 1248.0581,826.13052 1246.1002,806.91432 1240.0232,795.55932 C 1234.0798,784.45392 1207.2499,772.31992 1205.1132,783.29802 C 1202.605,796.18422 1209.8024,796.82022 1199.8789,796.82022 C 1190.7052,796.82022 1178.6681,806.52632 1166.668,818.52642 C 1144.6302,840.56422 1141.7312,841.85782 1117.886,841.85782 C 1101.7234,841.85782 1085.4845,849.29782 1059.7931,864.73962 C 1028.7657,883.38862 1033.6204,883.76682 987.1963,894.20142 C 960.02583,900.30842 956.36883,901.11372 949.70083,874.63282 C 942.61983,846.51142 942.51693,846.04732 956.38413,819.68532 C 963.34863,806.44552 969.9424,788.54842 972.5698,779.91382 C 976.3402,767.52262 978.1017,764.16832 999.7201,749.90192 C 1037.3074,725.09742 1042.2905,724.10852 1077.901,750.32352 C 1117.7425,779.65312 1149.7987,789.79072 1170.631,784.18112 C 1194.2294,777.82672 1202.7384,762.67412 1205.8187,733.20362 C 1207.4006,718.06802 1213.1828,698.47962 1219.8096,685.80612 C 1238.6586,640.14532 1245.7851,598.58022 1204.4288,579.31462 C 1157.9085,563.76552 1119.8919,564.82592 1069.4438,574.96132 C 1062.5656,576.39532 1052.4182,582.62272 1048.4766,579.35152 C 1042.3518,574.26832 1042.3634,573.32372 1048.6066,568.75852 C 1054.5516,564.41142 1053.3328,562.71602 1039.4215,555.98092 C 1030.5998,551.70992 1014.7698,547.16622 1004.2438,545.88402 C 987.7051,543.86922 983.8972,544.94862 976.2095,553.83052 C 970.2105,560.76142 962.81763,564.10842 953.50743,564.10842 C 935.93533,564.10842 930.77273,556.02712 938.63383,540.82552 C 942.76523,532.83632 944.70263,514.76592 944.70263,484.22261 C 944.70263,445.02621 943.62763,438.28061 936.19683,430.84971 C 925.17543,419.82841 926.29783,413.73581 906.50232,428.71391 C 841.59301,469.33361 880.79114,395.43381 898.07188,368.02771 C 919.09153,335.85811 916.65646,340.45231 953.33373,347.74621 C 967.0896,350.48181 991.0664,356.70211 1003.5499,356.97091 C 1023.4387,357.39901 1035.038,347.20871 1044.0044,336.78341 C 1067.8353,309.07511 1059.7842,278.89291 1017.2005,257.92901 C 1001.7031,250.29971 997.2594,248.17991 986.006,234.96451 C 977.2852,224.72321 967.7819,126.25911 972.383,107.92688 C 975.1961,96.718786 975.1316,96.044406 982.5537,104.98745 C 995.3366,120.38994 1053.0771,115.33109 1082.361,96.242976 C 1117.7188,73.195686 1137.41,58.631176 1149.3452,46.698346 C 1163.886,32.160566 1168.2519,34.088726 1171.2402,56.368016 C 1174.6675,81.920636 1188.9787,101.37937 1215.5073,116.55749 C 1238.6142,129.77797 1240.0447,130.03073 1276.9367,127.41206 C 1308.7534,125.15364 1314.7082,125.72938 1314.7082,131.064 C 1291.3819,145.44006 1264.4247,164.22681 1250.2435,191.65831 C 1245.2367,210.41391 1241.7096,225.90451 1248.996,235.74971 C 1267.8818,261.26791 1329.9289,289.52141 1370.0565,289.52141 C 1385.1855,289.52141 1419.6279,294.49141 1463.9033,307.24151 C 1486.5224,313.75521 1494.0059,319.70871 1513.4936,338.28481 C 1545.5574,376.48351 1533.4176,415.18661 1502.0764,452.40721 C 1478.7865,488.19221 1450.1571,484.13491 1410.9989,497.23222 C 1362.2905,513.11592 1335.7001,562.77312 1335.7001,607.42942 C 1335.7001,636.18672 1337.9832,645.66252 1369.3284,678.65022 C 1387.0897,702.90112 1391.3718,765.83582 1363.0783,778.57742 C 1352.8118,781.15422 1349.8964,816.19342 1352.4322,828.32922 C 1354.6043,838.72472 1398.1686,846.66362 1432.5213,843.55352 C 1458.64,841.18882 1455.9653,839.54472 1475.1747,849.98462 C 1491.6661,858.94732 1499.2496,859.15002 1500.2931,868.21862 C 1501.3427,877.34082 1504.3824,878.26802 1496.3204,881.33322 C 1490.6364,883.49432 1484.8279,888.27972 1483.4127,891.96762 C 1481.9976,895.65552 1477.4305,898.79412 1473.2636,898.94242 C 1467.3954,899.15122 1469.0097,898.13642 1475.4427,903.12712 C 1483.508,909.38402 1474.8788,916.70602 1437.3805,935.02032 L 1409.1452,946.24412 L 1295.5008,948.50662 C 1232.9963,949.06132 1180.6915,948.34402 1179.2679,946.91252 z"
       id="path2425"
       sodipodi:nodetypes="csccsssssssssssssssscccsssssssssccssssssssssssccssscccsccsssssssscccc" />
    <path
       style="fill:#000000"
       d="M 331.87316,58.615946 C 331.05046,58.594982 329.46376,60.455259 326.84186,63.709699 C 318.72066,73.790169 305.98897,113.68559 294.59187,164.74095 C 284.49707,209.96228 284.34677,216.35801 293.27937,229.99095 C 297.80347,236.89551 303.47707,240.25254 309.24816,239.42845 C 321.24896,237.71479 323.11896,219.10261 313.77936,194.6472 C 307.10477,177.16992 307.08407,174.19665 313.43566,153.80345 C 320.92506,129.75697 327.70996,98.788609 331.31066,72.272199 C 332.61166,62.691059 333.07556,58.646586 331.87316,58.615946 z M 139.74817,122.55345 C 138.95587,122.57859 138.07227,122.90436 137.12317,123.49095 C 132.26017,126.49646 132.28647,184.63231 137.15437,226.6472 C 141.40357,263.32239 145.40627,268.66674 182.31067,286.8347 C 211.64387,301.2754 218.24817,308.9757 218.24817,328.8347 C 218.24817,355.84838 174.76427,381.00904 150.49817,368.0222 C 137.12947,360.86749 89.359764,357.44995 79.123134,362.92845 C 57.981824,374.24294 25.870934,441.69332 32.904384,460.0222 C 36.353344,469.01006 53.247354,466.60299 70.841884,454.6472 C 87.268264,443.4852 89.889864,435.68885 74.435634,443.9597 C 67.941214,447.4354 64.733934,446.95134 60.435634,441.7722 C 55.732274,436.105 56.830104,431.36496 67.435634,411.55345 C 84.860534,379.00309 92.953464,374.2465 116.71687,382.5222 C 170.86037,401.37786 230.99817,372.47188 230.99817,327.5847 C 230.99817,300.74344 226.33347,291.63272 199.24817,265.5847 C 161.54397,229.32462 153.71517,212.119 148.31067,153.7097 C 146.20747,130.97991 144.02627,122.41772 139.74817,122.55345 z M 471.27936,151.11595 C 464.26206,151.04181 452.07126,154.93339 444.18566,159.74095 C 422.86156,172.74128 384.09186,215.0873 384.09186,225.3972 C 384.09186,230.31853 388.86906,240.84598 394.71686,248.7722 C 400.56466,256.69843 405.37316,265.46436 405.37316,268.24095 C 405.37316,274.09241 430.28986,293.90937 452.02936,305.3347 C 476.15646,318.01478 503.09246,325.20616 537.21686,328.0847 C 554.76026,329.56456 574.27546,333.3709 580.59186,336.55345 C 586.90826,339.73602 596.79056,342.33469 602.56066,342.3347 C 617.00046,342.3347 651.69006,357.73488 654.65436,365.4597 C 655.99036,368.94116 660.68126,372.93484 665.09186,374.3347 C 669.73656,375.80887 675.21556,383.91153 678.12316,393.61595 C 684.13256,413.67356 678.38916,438.14593 664.62316,451.0222 C 659.76196,455.56913 650.52526,464.58467 644.09186,471.05345 C 632.19376,483.01709 611.41756,491.17846 592.93566,491.17845 C 587.30616,491.17845 572.95866,495.80257 561.02936,501.42845 C 549.10006,507.05428 530.71166,515.00117 520.18566,519.0847 C 489.93846,530.81903 478.94986,545.16556 475.49816,577.3972 C 473.19186,598.93271 474.06406,607.71173 479.65436,618.5222 C 483.56346,626.08146 486.45156,639.29587 486.06066,647.86595 C 484.94666,672.28581 485.51696,673.95316 496.77936,679.0847 C 502.92706,681.88581 513.71036,695.39291 522.40436,711.2097 C 535.93266,735.82136 537.13526,740.69523 534.68566,760.5222 C 533.19096,772.6196 529.33176,786.74774 526.09186,791.92845 C 523.88376,795.45943 521.97506,799.90399 520.96686,803.5222 C 515.23346,813.11174 507.43566,833.76532 507.43566,840.24095 C 507.43566,844.81286 505.08216,852.30908 502.21686,856.8972 C 498.10596,863.47985 498.10596,866.34874 502.21686,870.4597 C 509.33686,877.57971 508.77686,889.54662 501.18566,892.4597 C 493.33846,895.47091 489.10546,889.02698 492.31066,878.92845 C 494.00336,873.59505 491.60006,869.47928 484.49816,865.67845 C 478.84236,862.65159 473.24406,855.14583 472.06066,848.99095 C 470.31676,839.92165 473.42766,834.41794 488.52936,819.92845 C 512.80636,796.63553 514.70726,787.70422 501.34186,758.99095 C 495.39026,746.20492 490.48976,732.39687 490.46686,728.30345 C 490.44406,724.20999 488.52476,720.83472 486.18566,720.8347 C 478.82166,720.8347 481.56846,754.06909 490.09186,768.0847 C 500.69766,785.5246 495.55066,797.59181 470.27936,814.6472 C 447.30966,830.14929 442.58936,830.4982 447.99816,816.2722 C 454.80246,798.37532 453.17656,752.26311 445.46686,744.55345 C 436.33526,735.42175 429.01566,735.88048 433.59186,745.30345 C 438.75416,755.93328 437.60206,800.88699 432.02936,806.4597 C 428.61486,809.87421 422.33376,807.26045 408.90436,796.8347 C 384.63606,777.99427 384.79966,778.32497 388.77936,757.7722 C 390.67226,747.99661 392.33086,739.03549 392.43566,737.86595 C 392.54036,736.69639 397.40316,730.16237 403.24816,723.36595 C 409.09306,716.56954 413.87316,707.6942 413.87316,703.6472 C 413.87316,699.60014 416.52986,691.19174 419.77936,684.92845 C 423.29246,678.15696 425.01066,665.43672 424.02936,653.5847 C 420.59526,612.10614 418.14766,606.4462 397.59186,592.30345 C 380.34936,580.44026 373.89366,578.66179 342.06066,576.99095 C 303.68217,574.97659 239.60587,582.45823 223.24817,590.86595 C 214.80117,595.20761 214.25767,596.68364 219.56067,601.0847 C 224.43987,605.13413 229.74197,604.94801 244.34187,600.2097 C 282.52407,587.81779 324.24076,588.63545 351.09186,602.2722 C 355.15356,604.335 361.02036,606.02219 364.12316,606.0222 C 367.22596,606.0222 375.14696,611.66325 381.74816,618.55345 C 393.17796,630.48358 393.66496,632.5636 391.71686,662.1472 C 390.31046,683.50554 386.86466,697.78551 380.68566,707.86595 C 375.74266,715.92986 369.45886,736.43127 366.71686,753.42845 C 361.14476,787.96992 354.75236,796.4977 331.68566,800.24095 C 309.47506,803.84523 299.99367,800.22567 260.37317,773.11595 C 216.13267,742.84507 199.92327,740.82979 172.81067,762.30345 C 163.21217,769.90557 153.14227,776.14719 150.43567,776.1472 C 147.72897,776.1472 142.61677,783.31305 139.09187,792.0847 C 135.56697,800.85638 125.89157,822.19853 117.59187,839.5222 L 102.49816,871.0222 L 109.81067,898.0222 C 118.14597,928.81547 116.84587,928.29636 163.31067,918.5222 C 195.53807,911.74293 196.71307,911.23808 241.49817,885.3347 C 262.89367,872.95963 272.43997,869.72705 281.46687,871.7097 C 298.26477,875.39912 314.65786,867.92985 338.27936,845.8347 C 353.39376,831.697 360.98236,827.36583 367.18566,829.3347 C 373.65356,831.38755 375.59186,830.03013 375.59186,823.49095 C 375.59186,818.49353 379.41026,813.77741 384.84186,812.05345 C 395.03096,808.81956 403.82896,817.48523 408.24816,835.0847 C 410.94166,845.81193 395.39616,915.3741 388.84186,921.92845 C 386.44226,924.32809 376.40466,924.04691 363.02936,921.17845 C 350.99306,918.59712 336.13396,916.49097 329.99816,916.49095 C 311.64446,916.49095 287.13967,930.20286 281.43567,943.67845 C 276.79217,954.6486 277.25297,956.81442 285.49817,963.49094 C 291.92887,968.69824 299.61367,970.38844 310.71686,969.08474 C 319.50206,968.05324 335.28456,970.01534 345.81066,973.42844 C 356.33666,976.84164 368.78866,978.51464 373.46686,977.14724 C 378.14506,975.77974 426.93516,974.37784 481.90436,974.05344 L 581.87316,973.49094 L 610.59186,959.55345 C 642.40806,944.12698 655.73196,929.24093 637.71686,929.24095 C 632.00806,929.24095 619.29726,922.55286 609.49816,914.36595 C 593.24806,900.78942 589.30326,899.45969 564.68566,899.4597 C 536.61886,899.4597 525.65486,893.25295 539.74816,885.36595 C 544.13526,882.91082 558.25446,880.75834 571.15436,880.55345 C 584.05426,880.34858 599.75666,878.60213 606.02936,876.67845 C 615.15756,873.87912 618.96486,875.01067 625.15436,882.3972 C 636.94726,896.47085 652.63386,903.25873 663.71686,899.0847 C 681.30236,892.46168 673.65166,878.43673 644.34186,863.5847 C 633.37886,858.02947 624.00216,857.05904 601.81066,859.1472 C 562.93426,862.80532 517.14936,855.36489 520.99816,838.36595 C 526.34636,815.80823 519.96126,816.72091 538.46686,805.86595 L 552.93566,797.30345 L 555.77936,754.11595 L 558.59186,710.92845 L 544.71686,697.3972 C 537.07776,689.94256 525.37366,676.36005 518.71686,667.24095 C 507.41306,651.75575 506.79746,648.84057 509.37316,623.0222 C 511.12546,605.45757 515.89396,588.93071 522.46686,577.7097 C 532.75836,560.14052 563.76416,533.70967 574.06066,533.7097 C 577.02906,533.7097 585.72296,530.99402 593.40436,527.67845 C 601.08586,524.36282 617.90596,518.60406 630.77936,514.86595 C 646.20386,510.38705 656.36656,504.56456 660.56066,497.80345 C 664.06096,492.16061 674.16486,478.98623 683.02936,468.5222 C 703.67006,444.15716 710.98646,408.43593 701.18566,379.7722 C 697.74416,369.70715 691.61486,359.54882 687.56066,357.2097 C 683.50636,354.87058 675.60966,348.60865 670.02936,343.2722 C 653.19276,327.17122 629.02616,319.90127 554.21686,308.42845 C 489.43856,298.494 448.16036,281.29832 429.68566,256.55345 C 416.08796,238.34081 422.41686,211.31662 446.71686,183.74095 C 457.45016,171.56081 470.25696,159.26945 475.15436,156.42845 C 483.58256,151.53917 483.35606,151.24357 471.27936,151.11595 z M 433.37316,347.2722 C 425.61606,347.19578 419.40976,357.84719 415.09186,378.8972 C 412.26096,392.69818 410.95146,407.36624 412.18566,411.4597 C 415.40236,422.12868 429.56096,420.631 437.31066,408.80345 C 440.94846,403.25153 445.01296,389.28792 446.37316,377.80345 C 448.33136,361.26899 447.37086,355.70395 441.65436,350.9597 C 438.73446,348.53637 435.95886,347.29767 433.37316,347.2722 z M 206.59187,453.36595 C 203.74717,453.22351 198.51587,457.72305 191.52937,466.74095 C 185.63977,474.34308 168.95597,493.00546 154.46687,508.2097 C 121.48547,542.81909 101.96236,570.62346 105.02936,578.61595 C 108.72537,588.24757 132.08037,586.21663 140.65437,575.5222 C 148.91957,565.21295 157.57767,556.94605 181.15437,536.80345 C 194.39417,525.49213 197.93867,518.98686 201.34187,499.7097 C 203.61307,486.84456 206.64597,471.04851 208.09187,464.61595 C 209.75047,457.23733 209.10197,453.49164 206.59187,453.36595 z M 203.71687,760.8347 C 211.85957,760.96453 231.00737,771.45763 250.12317,786.67845 C 287.24757,816.23853 310.21016,825.22225 332.37316,818.86595 C 339.77696,816.74254 345.81066,816.4566 345.81066,818.24095 C 345.81066,826.74492 310.45086,848.80693 289.74817,853.2097 C 277.32257,855.85218 250.00987,866.62134 229.06067,877.11595 C 187.75477,897.80836 148.76847,905.40418 138.49817,894.7722 C 129.34687,885.29862 132.31027,855.22608 144.87317,830.1472 C 155.00937,809.91261 188.08637,769.36977 200.93567,761.42845 C 201.61767,761.0069 202.55367,760.81615 203.71687,760.8347 z M 446.90436,850.49095 C 449.90626,850.50682 452.63076,851.33272 454.77936,853.11595 C 458.00356,855.79177 460.65436,865.19374 460.65436,873.99095 C 460.65436,886.67602 458.78676,890.44649 451.68566,892.30345 C 439.09866,895.59501 443.92936,905.59692 458.84186,907.11595 C 465.67886,907.81237 481.28756,911.20507 493.49816,914.6472 C 506.09056,918.19692 529.82616,920.53144 548.34186,920.05345 C 577.51976,919.30013 581.79706,920.21005 588.65436,928.67845 C 598.19896,940.46547 595.34566,948.76666 580.49816,952.49095 C 561.18566,957.33518 353.38506,959.10531 338.59186,954.55345 C 321.36846,949.25382 318.43166,944.46365 327.09186,935.80345 C 331.55816,931.33719 337.15936,929.96191 343.09186,931.86595 C 368.22576,939.93284 379.57266,940.53011 395.24816,934.61595 C 412.02976,928.28451 418.22166,927.53315 432.56066,929.99095 C 444.29636,932.00251 445.67946,922.3493 434.93566,913.49095 C 429.83506,909.28543 423.17966,900.14989 420.15436,893.17845 C 415.55896,882.58881 415.67406,878.51565 420.84186,868.5222 C 426.43736,857.70171 437.89886,850.44333 446.90436,850.49095 z"
       id="path2422"
       sodipodi:nodetypes="csssssssccsssssssssssssssccssssssssssssssssssssssscsssssssssssssssssssssssssssssssssssssssscccsssssssssssssssscccssssssssssccccccsssssssssssssssccsssssccsssssssccssssssssccssssssssssssssssc" />
  </g>
</svg>
